<svg width="24" height="24" viewBox="0 0 24 24" fill="none" xmlns="http://www.w3.org/2000/svg">
<path d="M12 8.42502C12.1333 8.42502 12.2626 8.45002 12.388 8.50002C12.5133 8.55002 12.6173 8.61669 12.7 8.70002L17.3 13.3C17.4833 13.4834 17.575 13.7167 17.575 14C17.575 14.2834 17.4833 14.5167 17.3 14.7C17.1166 14.8834 16.8833 14.975 16.6 14.975C16.3166 14.975 16.0833 14.8834 15.9 14.7L12 10.8L8.09995 14.7C7.91662 14.8834 7.68328 14.975 7.39995 14.975C7.11662 14.975 6.88329 14.8834 6.69995 14.7C6.51662 14.5167 6.42495 14.2834 6.42495 14C6.42495 13.7167 6.51662 13.4834 6.69995 13.3L11.3 8.70002C11.4 8.60002 11.5083 8.52902 11.625 8.48702C11.7416 8.44502 11.8666 8.42435 12 8.42502Z" fill="white"/>
</svg>
