<svg xmlns:xlink="http://www.w3.org/1999/xlink" viewBox="0 0 131 28" fill="none" xmlns="http://www.w3.org/2000/svg" fit="" height="28" width="131" preserveAspectRatio="xMidYMid meet" focusable="false">
<g id="Group 5" fill="none">
<g id="Visa_Inc._logo" fill="none">
<path id="path17" fill-rule="evenodd" clip-rule="evenodd" d="M53.0351 2.89002C51.8695 2.42758 50.0207 1.91699 47.7347 1.91699C41.8988 1.91699 37.7892 5.02901 37.764 9.47825C37.7155 12.7609 40.7063 14.5842 42.9432 15.6787C45.2296 16.7971 46.0068 17.5272 46.0068 18.5241C45.9835 20.0552 44.1593 20.761 42.4578 20.761C40.0985 20.761 38.8343 20.3971 36.9131 19.5453L36.1349 19.1801L35.308 24.3106C36.694 24.942 39.2476 25.5024 41.8988 25.5269C48.0995 25.5269 52.1364 22.4631 52.1843 17.7217C52.2079 15.12 50.6286 13.1264 47.2238 11.4973C45.1569 10.4516 43.8911 9.74647 43.8911 8.6765C43.9153 7.70379 44.9617 6.70749 47.2949 6.70749C49.2161 6.6587 50.6276 7.12049 51.6969 7.58261L52.2314 7.8253L53.0351 2.89002ZM0.0972707 2.33128H9.60524C10.894 2.37943 11.9397 2.79275 12.28 4.25246L14.3464 14.7534C14.3466 14.7541 14.3467 14.7548 14.3469 14.7554L14.9794 17.9162L20.7668 2.33128H27.0157L17.7269 25.1621H11.4776L6.21039 5.30307C4.39305 4.24059 2.31896 3.38608 0 2.79307L0.0972707 2.33128ZM25.7027 25.1863H31.6123L35.3083 2.33128H29.399L25.7027 25.1863ZM63.6131 2.33128H68.1842L72.9517 25.186H67.48C67.48 25.186 66.9445 22.56 66.7749 21.7576H59.1874C58.968 22.3652 57.9471 25.186 57.9471 25.186H51.7464L60.5243 4.22757C61.1325 2.74428 62.2035 2.33128 63.6131 2.33128ZM60.8895 17.0896C61.3762 15.7766 63.2489 10.6949 63.2489 10.6949C63.239 10.7146 63.3163 10.5004 63.4312 10.1819L63.4313 10.1814L63.4314 10.1813C63.601 9.71109 63.8525 9.01393 64.0264 8.50684L64.4394 10.4762C64.4394 10.4762 65.5585 15.9469 65.8015 17.0896H60.8895Z" fill="#FFFFFF"></path>
</g>
  <g id="_Group_" fill="none">
<path id="Rectangle-path" d="M102.298 2.90955H114.217V24.3295H102.298V2.90955Z" fill="#FF5F00"></path>
    <path id="_Path_" d="M103.055 13.6252C103.052 9.446 104.97 5.49739 108.258 2.91708C102.673 -1.47209 94.6526 -0.832765 89.8335 4.38575C85.0145 9.60426 85.0145 17.6499 89.8335 22.8684C94.6526 28.0869 102.673 28.7263 108.258 24.3371C104.969 21.756 103.051 17.8057 103.055 13.6252Z" fill="#EB001B"></path>
    <path id="Shape" d="M130.298 13.6252C130.298 18.8405 127.32 23.598 122.629 25.8771C117.938 28.1561 112.358 27.5567 108.258 24.3333C111.544 21.7508 113.463 17.8027 113.463 13.6233C113.463 9.44389 111.544 5.49581 108.258 2.91331C112.358 -0.310478 117.94 -0.909623 122.631 1.37039C127.322 3.65041 130.3 8.40919 130.298 13.6252Z" fill="#F79E1B"></path>
    <path id="Shape_2" fill-rule="evenodd" clip-rule="evenodd" d="M129.863 21.5295V22.0593L129.765 22.0631V21.662L129.617 22.0063H129.515L129.368 21.662V22.0593H129.288V21.5295H129.428L129.587 21.9079L129.746 21.5295H129.863ZM128.989 21.6204V22.0593L128.902 22.0631V21.6241H128.724V21.5333H129.167V21.6204H128.989Z" fill="#F79E1B"></path>
</g>
</g>
</svg>