<svg width="56" height="56" viewBox="0 0 56 56" fill="none" xmlns="http://www.w3.org/2000/svg">
<path d="M30.889 19.3333H48.2223C49.7547 19.3333 51.2243 19.9421 52.3078 21.0256C53.3914 22.1092 54.0001 23.5788 54.0001 25.1111V42.4444M48.2223 48.2222H19.3334C17.8011 48.2222 16.3315 47.6135 15.2479 46.53C14.1644 45.4464 13.5557 43.9768 13.5557 42.4444V25.1111C13.5557 23.5788 14.1644 22.1092 15.2479 21.0256C16.3315 19.9421 17.8011 19.3333 19.3334 19.3333" stroke="#2AC8EB" stroke-width="4" stroke-linecap="round" stroke-linejoin="round"/>
<path d="M29.6813 29.7044C28.6296 30.7949 28.0483 32.2548 28.0625 33.7697C28.0767 35.2846 28.6854 36.7333 29.7574 37.8038C30.8294 38.8743 32.279 39.481 33.7939 39.493C35.3089 39.5051 36.7679 38.9217 37.8569 37.8684M42.4444 19.3333V13.5556C42.4444 12.0232 41.8357 10.5536 40.7522 9.47005C39.6686 8.38651 38.199 7.77778 36.6667 7.77778H19.3333M7.77778 7.77778C6.24542 7.77778 4.77582 8.38651 3.69227 9.47005C2.60873 10.5536 2 12.0232 2 13.5556V30.8889C2 32.4213 2.60873 33.8908 3.69227 34.9744C4.77582 36.0579 6.24542 36.6667 7.77778 36.6667H13.5556M2 2L54 54" stroke="#2AC8EB" stroke-width="4" stroke-linecap="round" stroke-linejoin="round"/>
</svg>
