<svg xmlns:xlink="http://www.w3.org/1999/xlink" viewBox="0 0 12 12" fill="none" xmlns="http://www.w3.org/2000/svg" fit="" height="21" width="16" preserveAspectRatio="xMidYMid meet" focusable="false">
    <circle cx="6" cy="6" r="5.25" stroke="#FFFFFF" stroke-width="1.05px" stroke-linecap="round" fill="none"></circle>
    <path fill-rule="evenodd" clip-rule="evenodd" d="M6.52504 3.75004C6.52504 3.46009 6.28999 3.22504 6.00004 3.22504C5.71009 3.22504 5.47504 3.46009 5.47504 3.75004V5.47504L3.75004 5.47504C3.46009 5.47504 3.22504 5.71009 3.22504 6.00004C3.22504 6.28999 3.46009 6.52504 3.75004 6.52504H5.47504V8.25004C5.47504 8.53999 5.71009 8.77504 6.00004 8.77504C6.28999 8.77504 6.52504 8.53999 6.52504 8.25004V6.52504H8.25004C8.53999 6.52504 8.77504 6.28999 8.77504 6.00004C8.77504 5.71009 8.53999 5.47504 8.25004 5.47504L6.52504 5.47504V3.75004Z" fill="#FFFFFF"></path>
  </svg>