<svg width="17" height="17" viewBox="0 0 17 17" xmlns="http://www.w3.org/2000/svg">
<path d="M12.7499 4.25H11.3333C11.3333 2.68458 10.0653 1.41667 8.49992 1.41667C6.9345 1.41667 5.66659 2.68458 5.66659 4.25H4.24992C3.47075 4.25 2.83325 4.8875 2.83325 5.66667V14.1667C2.83325 14.9458 3.47075 15.5833 4.24992 15.5833H12.7499C13.5291 15.5833 14.1666 14.9458 14.1666 14.1667V5.66667C14.1666 4.8875 13.5291 4.25 12.7499 4.25ZM7.08325 7.08333C7.08325 7.47292 6.7645 7.79167 6.37492 7.79167C5.98534 7.79167 5.66659 7.47292 5.66659 7.08333V5.66667H7.08325V7.08333ZM8.49992 2.83333C9.27909 2.83333 9.91658 3.47083 9.91658 4.25H7.08325C7.08325 3.47083 7.72075 2.83333 8.49992 2.83333ZM11.3333 7.08333C11.3333 7.47292 11.0145 7.79167 10.6249 7.79167C10.2353 7.79167 9.91658 7.47292 9.91658 7.08333V5.66667H11.3333V7.08333Z" />
</svg>
