<svg width="24" height="24" viewBox="0 0 24 24" fill="none" xmlns="http://www.w3.org/2000/svg">
<g clip-path="url(#clip0_34_6097)">
<path d="M12.0223 0.26667C5.82553 0.26667 0.749002 5.0448 0.266602 11.1171L6.58927 13.7312C7.125 13.3648 7.7722 13.1501 8.46847 13.1501C8.53087 13.1501 8.593 13.1528 8.6546 13.1557L11.4663 9.08027C11.4663 9.0608 11.4663 9.04187 11.4663 9.02267C11.4663 6.5696 13.4618 4.57387 15.9151 4.57387C18.3682 4.57387 20.3637 6.5696 20.3637 9.02267C20.3637 11.4757 18.3682 13.4717 15.9151 13.4717C15.8813 13.4717 15.8477 13.4717 15.8141 13.4691L11.8039 16.3304C11.8066 16.3824 11.8079 16.4355 11.8079 16.4883C11.8079 18.3299 10.3101 19.8275 8.46873 19.8275C6.85247 19.8275 5.501 18.6739 5.19487 17.1461L0.673002 15.2779C2.073 20.2293 6.62207 23.8595 12.0223 23.8595C18.5375 23.8595 23.8189 18.5779 23.8189 12.0635C23.8189 5.548 18.5373 0.26667 12.0223 0.26667Z" />
<path d="M7.65903 18.1659L6.20996 17.5672C6.46676 18.1019 6.91103 18.5496 7.50089 18.7955C8.77609 19.3267 10.2462 18.7216 10.7777 17.4453C11.035 16.8283 11.0366 16.1469 10.7814 15.5283C10.5268 14.9093 10.0462 14.4267 9.42836 14.1691C8.81529 13.9139 8.15849 13.9232 7.58143 14.1411L9.07823 14.76C10.0188 15.152 10.4636 16.232 10.0716 17.1725C9.68036 18.1133 8.59956 18.5581 7.65903 18.1659Z" />
<path d="M18.879 9.02267C18.879 7.38827 17.5494 6.0584 15.9147 6.0584C14.2803 6.0584 12.9504 7.38827 12.9504 9.02267C12.9504 10.6573 14.2803 11.9867 15.9147 11.9867C17.5494 11.9867 18.879 10.6571 18.879 9.02267ZM13.6928 9.0176C13.6928 7.78774 14.6899 6.79094 15.9198 6.79094C17.1496 6.79094 18.1467 7.78774 18.1467 9.0176C18.1467 10.2475 17.1496 11.2443 15.9198 11.2443C14.6899 11.2443 13.6928 10.2472 13.6928 9.0176Z" />
</g>
<defs>
<clipPath id="clip0_34_6097">
<rect width="24" height="24" fill="white"/>
</clipPath>
</defs>
</svg>
