<svg width="193" height="71" viewBox="0 0 193 71" fill="none" xmlns="http://www.w3.org/2000/svg">
<path d="M12.067 22.1238H31.9322C33.2306 22.1238 33.994 21.7124 34.2225 20.8896L34.4251 20.1182C34.4562 19.9948 34.4718 19.8868 34.4718 19.7942C34.4718 19.1874 33.9161 18.8839 32.8047 18.8839H12.9396L14.373 13.6384H34.2225C39.2187 13.6384 41.7168 15.1503 41.7168 18.1742C41.7168 18.7708 41.6233 19.4188 41.4363 20.1182L41.2338 20.8896C40.7767 22.5455 40.0237 23.8312 38.9746 24.7466C39.2862 25.2609 39.442 25.8831 39.442 26.6134C39.442 27.2099 39.3433 27.8733 39.146 28.6036L38.9278 29.375C37.7645 33.6949 34.1966 35.8548 28.224 35.8548H8.35889L12.067 22.1238ZM30.5144 27.3694H17.6605L16.7879 30.6093H29.6419C30.9402 30.6093 31.6985 30.1978 31.9166 29.375L32.1347 28.6036C32.1659 28.4802 32.1815 28.3722 32.1815 28.2796C32.1815 27.6728 31.6258 27.3694 30.5144 27.3694Z" fill="#2AC8EB"/>
<path d="M60.1173 27.3694H47.2634L44.9731 35.8548H37.9619L41.67 22.1238H61.5352C62.8335 22.1238 63.597 21.7124 63.8255 20.8896L64.0281 20.1182C64.0592 19.9948 64.0748 19.8868 64.0748 19.7942C64.0748 19.1874 63.5191 18.8839 62.4077 18.8839H42.5425L43.9759 13.6384H63.8255C68.8217 13.6384 71.3197 15.1503 71.3197 18.1742C71.3197 18.7708 71.2262 19.4188 71.0393 20.1182L70.8367 20.8896C70.2758 22.9569 69.2319 24.4792 67.7051 25.4563C68.4321 26.7317 68.7957 28.5368 68.7957 30.8715C68.7957 32.3321 68.6555 33.9931 68.375 35.8548H61.3794C61.5144 34.3326 61.5819 33.016 61.5819 31.9052C61.5819 28.8813 61.0937 27.3694 60.1173 27.3694Z" fill="#2AC8EB"/>
<path d="M81.7431 13.6384C84.9942 13.6384 86.6198 15.6852 86.6198 19.7788V20.0565L86.8847 26.3357L90.5461 20.0565C92.7793 15.7778 95.5578 13.6384 98.8817 13.6384C103.192 13.6384 105.348 15.3098 105.348 18.6525C105.348 19.5371 105.197 20.5399 104.896 21.661L101.063 35.8548H94.0517L98.1026 20.8896C98.1234 20.8176 98.1338 20.7507 98.1338 20.689C98.1338 20.5142 98.0351 20.4267 97.8378 20.4267C97.5261 20.4267 96.8718 21.373 95.8746 23.2655L90.2656 32.5223C89.1023 34.744 87.378 35.8548 85.0929 35.8548H83.5349C81.2913 35.8548 80.1695 34.7851 80.1695 32.6458V32.5223L79.5462 23.2655V22.6329C79.5462 21.1621 79.4112 20.4267 79.1411 20.4267C78.8815 20.4267 78.7101 20.581 78.627 20.8896L74.5761 35.8548H67.5648L71.3976 21.661C72.8414 16.3126 76.2899 13.6384 81.7431 13.6384Z" fill="#2AC8EB"/>
<path d="M30.5768 63.3321L29.0187 69.1177H9.54306C3.18102 69.1177 0 66.9706 0 62.6765C0 61.7122 0.155805 60.6451 0.467415 59.4751L2.55131 51.7611C4.29113 45.3328 9.05617 42.1186 16.8464 42.1186H36.3221L34.7835 47.9041H15.2884C12.6916 47.9041 11.0427 49.1898 10.3416 51.7611L8.25767 59.4751C8.11485 60.028 8.04344 60.5165 8.04344 60.9408C8.04344 62.535 9.06266 63.3321 11.1011 63.3321H30.5768Z" fill="white"/>
<path d="M44.5408 58.5109C38.5683 58.5109 35.582 56.7109 35.582 53.1111C35.582 52.4168 35.6988 51.6454 35.9326 50.7969L36.1857 49.8326C37.575 44.6899 41.8402 42.1186 48.9812 42.1186H73.3258L71.7677 47.9041H47.4232C45.4756 47.9041 44.3266 48.5469 43.976 49.8326L43.7228 50.7969C43.6709 50.9897 43.6449 51.1697 43.6449 51.3368C43.6449 52.2625 44.4694 52.7254 46.1183 52.7254H59.7513C65.7238 52.7254 68.7101 54.5253 68.7101 58.1252C68.7101 58.8323 68.5997 59.6037 68.379 60.4394L68.1063 61.4036C66.717 66.5463 62.4519 69.1177 55.3108 69.1177H30.9857L32.5243 63.3321H56.8689C58.8164 63.3321 59.9655 62.6893 60.3161 61.4036L60.5887 60.4394C60.6406 60.2465 60.6666 60.073 60.6666 59.9187C60.6666 58.9801 59.8357 58.5109 58.1737 58.5109H44.5408Z" fill="white"/>
<path d="M79.6554 69.1177C73.2933 69.1177 70.1123 66.9706 70.1123 62.6765C70.1123 61.7122 70.2681 60.6451 70.5797 59.4751L72.6636 51.7611C74.4034 45.3328 79.1685 42.1186 86.9587 42.1186H108.382L106.843 47.9041H85.4007C82.8039 47.9041 81.155 49.1898 80.4539 51.7611L78.37 59.4751C78.2271 60.028 78.1557 60.5165 78.1557 60.9408C78.1557 62.535 79.175 63.3321 81.2134 63.3321H94.8464L96.1512 58.5109H87.3872L88.9647 52.7254H105.519L101.079 69.1177H79.6554Z" fill="white"/>
<path d="M107.72 51.7611C109.46 45.3328 114.225 42.1186 122.015 42.1186H133.7C140.062 42.1186 143.243 44.2656 143.243 48.5598C143.243 49.524 143.088 50.5911 142.776 51.7611L140.166 61.4036C138.777 66.5463 134.187 69.1177 126.397 69.1177H114.712C108.349 69.1177 105.168 66.9706 105.168 62.6765C105.168 61.7122 105.324 60.6451 105.636 59.4751L107.72 51.7611ZM134.986 51.7611C135.128 51.2083 135.2 50.7197 135.2 50.2954C135.2 48.7012 134.181 47.9041 132.142 47.9041H120.457C117.86 47.9041 116.211 49.1898 115.51 51.7611L113.426 59.4751C113.283 60.028 113.212 60.5165 113.212 60.9408C113.212 62.535 114.231 63.3321 116.27 63.3321H127.955C130.552 63.3321 132.201 62.0465 132.902 59.4751L134.986 51.7611Z" fill="white"/>
<path d="M190.451 45.4894C190.451 45.468 190.473 45.4679 190.473 45.4465C190.473 45.4251 190.473 45.4251 190.473 45.4037C190.473 45.3823 190.473 45.3395 190.473 45.3181C190.473 45.2752 190.473 45.211 190.451 45.1682C190.429 45.0397 190.407 44.9326 190.363 44.8041C190.341 44.6971 190.297 44.6114 190.253 44.5043C190.209 44.5043 190.164 44.4829 190.142 44.4615C189.569 43.969 189.216 43.2624 189.15 42.5343C188.775 42.8555 188.356 43.1125 187.893 43.3266C187.606 43.4551 187.297 43.5836 186.989 43.6692C186.768 43.7335 186.547 43.7977 186.327 43.8191C186.327 43.9904 186.305 44.1831 186.305 44.3545C186.283 44.7185 186.261 45.0611 186.239 45.4251C186.371 45.3609 186.525 45.3181 186.658 45.2538C186.856 45.1896 187.033 45.1039 187.209 45.0183C187.408 44.9326 187.584 44.8255 187.76 44.7185C187.849 44.6542 187.937 44.6114 188.047 44.5686C188.135 44.5258 188.224 44.4829 188.312 44.5043C188.356 44.5258 188.378 44.5472 188.378 44.59C188.378 44.7827 188.069 44.9112 187.937 44.9969C187.76 45.1039 187.562 45.1896 187.385 45.2752C187.187 45.3609 186.989 45.4465 186.79 45.5322C186.614 45.5964 186.393 45.6821 186.217 45.6821C186.172 46.0889 186.106 46.4958 186.018 46.9026C185.974 47.1168 185.908 47.3095 185.864 47.5022C185.798 47.6735 185.753 47.8877 185.621 48.0376C185.555 48.1018 185.489 48.1446 185.423 48.166C185.731 48.6371 185.93 49.1296 186.084 49.6436C186.128 49.6007 186.172 49.5793 186.239 49.5793C186.393 49.5793 186.569 49.6007 186.724 49.6007C186.658 49.3652 186.614 49.1082 186.569 48.8727C186.525 48.6371 186.481 48.3802 186.437 48.1446C186.415 48.0804 186.437 47.9947 186.525 47.9519C187.011 47.7164 187.496 47.4594 187.959 47.181C188.775 46.7099 189.591 46.1746 190.341 45.5964C190.385 45.575 190.429 45.5322 190.451 45.5108C190.451 45.5322 190.451 45.5108 190.451 45.4894Z" fill="white"/>
<path d="M186.283 56.8599C186.283 56.8385 186.305 56.7956 186.305 56.7742C186.327 56.7314 186.327 56.6457 186.393 56.6243C186.415 56.6029 186.415 56.6029 186.437 56.6029C186.437 56.5601 186.437 56.5387 186.437 56.4958C186.393 54.9755 186.305 53.4551 186.128 51.9348C186.084 51.5708 186.04 51.2067 185.974 50.8641C185.952 50.8641 185.952 50.8641 185.93 50.8427C184.827 50.3502 183.592 50.1575 182.379 50.2003C182.026 50.2003 181.673 50.2431 181.32 50.286C181.982 50.6928 182.6 51.1639 183.151 51.6778C184.21 52.6628 185.114 53.8406 185.687 55.1468C185.842 55.468 185.952 55.8106 186.062 56.1532C186.15 56.3674 186.239 56.6029 186.283 56.8599Z" fill="white"/>
<path d="M181.872 53.0911C182.379 53.5408 182.842 54.0119 183.261 54.5472C183.702 55.0826 184.033 55.6821 184.254 56.3459C184.452 56.9669 184.584 57.5879 184.673 58.2303C185.004 58.1233 185.312 57.9519 185.577 57.7378C185.731 57.6093 185.886 57.4809 185.908 57.2881C185.93 57.0954 185.864 56.8813 185.82 56.6886C185.158 54.0761 183.261 51.9134 180.945 50.5001C180.879 50.4573 180.857 50.393 180.857 50.3288C179.997 50.4787 179.181 50.7356 178.365 51.0782C179.027 51.2281 179.666 51.5065 180.24 51.8705C180.857 52.2346 181.387 52.6628 181.872 53.0911Z" fill="white"/>
<path d="M156.464 31.7634C156.398 31.228 156.354 30.6927 156.288 30.1788C156.244 29.9218 156.222 29.6434 156.156 29.3865C156.134 29.258 156.112 29.1295 156.067 28.9796C156.045 28.8726 156.023 28.7869 156.023 28.7013C155.869 28.7227 155.737 28.7227 155.582 28.7441C155.935 30.0717 156.045 31.4636 156.045 32.8126C156.045 33.455 156.001 34.0974 155.935 34.7184C155.913 35.0182 155.847 35.318 155.825 35.6178C155.825 35.7034 155.781 35.8319 155.847 35.9176C155.891 36.0032 156.045 35.9818 156.134 36.0032C156.134 35.8962 156.156 35.7677 156.156 35.6606C156.178 35.4893 156.2 35.318 156.222 35.1467C156.266 34.8255 156.31 34.5043 156.332 34.1831C156.354 33.8619 156.376 33.5193 156.398 33.1981C156.398 33.0268 156.398 32.8769 156.42 32.7056C156.42 32.5771 156.42 32.4058 156.509 32.2987C156.531 32.2773 156.597 32.2773 156.619 32.2987C156.707 32.4058 156.707 32.5771 156.707 32.7056C156.707 32.8769 156.707 33.0482 156.707 33.2195C156.707 33.5407 156.685 33.8833 156.641 34.2045C156.619 34.5257 156.575 34.8469 156.531 35.1681C156.509 35.3394 156.487 35.5107 156.442 35.6606C156.42 35.7891 156.376 35.8962 156.354 36.0032C156.928 36.046 157.523 36.046 158.097 36.0246C158.405 36.0032 158.736 35.9818 159.045 35.939C159.354 35.8962 159.685 35.8747 159.993 35.7891C160.059 35.7677 160.081 35.7677 160.081 35.7034C160.104 35.6392 160.081 35.5321 160.081 35.4679C160.081 35.318 160.059 35.1681 160.059 35.0182C160.037 34.697 160.015 34.3972 159.993 34.076C159.949 33.4336 159.883 32.8126 159.817 32.1702C159.685 30.9068 159.486 29.6434 159.288 28.3801C159.288 28.3801 159.288 28.3801 159.288 28.3586C159.023 28.3801 158.736 28.4229 158.471 28.4443C157.766 28.5299 157.06 28.5942 156.354 28.6798C156.398 28.7655 156.398 28.8726 156.42 28.9582C156.442 29.0867 156.464 29.2152 156.509 29.3651C156.553 29.622 156.597 29.9004 156.619 30.1574C156.641 30.4357 156.663 30.6927 156.685 30.9711C156.707 31.2494 156.663 31.5064 156.641 31.7848C156.619 31.8704 156.487 31.8704 156.464 31.7634Z" fill="#2AC8EB"/>
<path d="M159.707 28.3158C159.971 29.7933 160.17 31.2923 160.302 32.8126C160.346 33.1981 160.368 33.5835 160.39 33.969C160.589 33.969 160.809 33.9475 161.008 33.9047C161.228 33.8619 161.449 33.7762 161.647 33.6692C162.044 33.455 162.353 33.1124 162.596 32.727C162.86 32.2987 163.103 31.8704 163.346 31.4422C163.61 31.0139 163.853 30.5642 164.095 30.136C164.338 29.7077 164.515 29.3008 164.669 28.8512C164.691 28.7869 164.757 28.7441 164.801 28.7227C164.757 28.5942 164.823 28.4657 164.912 28.3586C164.735 28.4229 164.559 28.4443 164.404 28.4229C164.118 28.3801 163.875 28.2302 163.721 27.9946C163.654 27.909 163.61 27.8233 163.61 27.7162C163.412 27.652 163.235 27.4807 163.147 27.2666C162.949 26.7741 163.302 26.3672 163.632 26.046C163.743 25.9389 163.875 25.8319 164.007 25.7462C163.632 25.789 163.257 25.8319 162.882 25.8533C162.905 25.9389 162.882 26.046 162.882 26.1317C162.882 26.2815 162.882 26.4314 162.838 26.5813C162.772 26.7526 162.618 26.7955 162.441 26.8383C162.287 26.8811 162.133 26.9025 161.956 26.9454C161.625 27.0096 161.272 27.0524 160.942 27.0524C160.875 27.0524 160.787 27.0524 160.699 27.0524C160.743 27.2666 160.809 27.4807 160.853 27.6948C160.898 27.8661 160.875 28.0589 160.699 28.1659C160.545 28.2516 160.368 28.2516 160.192 28.273C160.081 28.273 159.905 28.2944 159.707 28.3158Z" fill="white"/>
<path d="M176.579 28.2088C176.579 28.1659 176.601 28.1231 176.601 28.0803C176.623 27.9732 176.623 27.909 176.534 27.8233C176.446 27.7591 176.336 27.6948 176.248 27.652C176.005 27.5235 175.785 27.4165 175.542 27.288C175.41 27.2237 175.255 27.1595 175.101 27.0953C175.057 27.2666 174.902 27.4593 174.792 27.6092C174.417 28.1445 174.042 28.6584 173.645 29.1724C173.447 29.4293 173.248 29.6863 173.05 29.9432C172.939 30.0717 172.829 30.2002 172.741 30.3501C172.653 30.4572 172.564 30.5856 172.454 30.6713C172.366 30.7141 172.3 30.7355 172.234 30.7141C172.19 30.8212 172.168 30.9068 172.19 31.0139C172.212 31.1852 172.344 31.3351 172.476 31.4422C172.741 31.7206 173.028 32.0203 173.292 32.2987C173.381 32.2345 173.469 32.1488 173.535 32.0846C173.645 31.9989 173.778 31.9133 173.888 31.8062C173.954 31.7634 174.042 31.7634 174.086 31.8276C174.197 31.9989 174.02 32.1702 173.888 32.2773C173.822 32.3415 173.755 32.3844 173.689 32.4486C173.8 32.5343 173.888 32.6413 173.998 32.7484C175.101 33.8405 176.292 34.8683 177.571 35.7463C178.056 36.0675 178.541 36.3887 179.027 36.6885C179.071 36.6885 179.137 36.7099 179.159 36.7741C179.975 37.2666 180.791 37.7163 181.651 38.1446C182.004 38.3159 182.379 38.5086 182.754 38.6585C183.129 38.8084 183.526 38.9155 183.923 38.8084C184.651 38.6371 185.158 38.0161 185.621 37.5022C185.797 37.3094 185.974 37.1167 186.128 36.924V36.9026C186.128 36.7955 186.217 36.7527 186.305 36.7313C187.143 35.7463 187.915 34.7184 188.532 33.5835C188.929 32.8555 189.26 32.106 189.503 31.3137C189.723 30.6071 189.878 29.879 189.988 29.1295C189.547 29.0439 189.128 28.894 188.731 28.7227C188.268 28.53 187.827 28.3158 187.385 28.0803C187.099 27.9304 186.79 27.7805 186.614 27.5235C186.569 27.5664 186.503 27.6306 186.459 27.6734L186.194 27.9304L185.643 28.4443C185.312 28.7441 185.004 29.0439 184.673 29.3437C184.496 29.4936 184.342 29.6435 184.165 29.8148C184.011 29.9432 183.879 30.0931 183.702 30.2216C183.548 30.3287 183.371 30.3929 183.195 30.3715C182.997 30.3501 182.82 30.243 182.644 30.2002C182.445 30.136 182.225 30.0931 182.026 30.0717C182.158 30.1788 182.269 30.3073 182.357 30.4572C182.489 30.6285 182.577 30.7998 182.666 30.9925C182.754 31.1852 182.864 31.3779 182.864 31.5707C182.864 31.6777 182.71 31.742 182.644 31.6563C182.489 31.485 182.401 31.2709 182.291 31.0567C182.18 30.864 182.07 30.6713 181.938 30.5214C181.806 30.3715 181.673 30.243 181.519 30.136C181.32 30.0075 181.078 29.9432 180.857 29.9004C180.35 29.7933 179.865 29.7077 179.379 29.5578C178.519 29.3223 177.659 29.0011 176.887 28.5514C176.821 28.6799 176.755 28.8083 176.645 28.894C176.49 29.0225 176.27 28.8512 176.358 28.6799C176.424 28.5728 176.49 28.4871 176.556 28.3801V28.3587C176.446 28.3158 176.49 28.2302 176.579 28.2088Z" fill="white"/>
<path d="M186.481 37.0739C186.569 37.6521 186.591 38.2516 186.636 38.8512C186.658 39.1724 186.702 39.4936 186.724 39.8362C186.724 39.8576 186.746 40.0075 186.746 40.0504C186.768 40.0504 186.79 40.0504 186.812 40.0504C186.878 40.0289 186.922 40.0289 186.988 40.0075C186.988 39.9861 186.988 39.9647 186.966 39.9433C186.944 39.772 186.922 39.6007 186.9 39.4508C186.856 39.1082 186.834 38.7656 186.812 38.4229C186.768 37.8448 186.768 37.2666 186.812 36.6885C186.702 36.7955 186.591 36.924 186.481 37.0739Z" fill="white"/>
<path d="M169.653 34.6542C169.675 34.9326 169.675 35.2323 169.697 35.5107C169.741 36.667 169.785 37.8448 169.852 39.0011C169.874 39.2795 169.874 39.5793 169.896 39.879C169.896 39.9861 169.918 40.0504 170.028 40.0718C170.028 40.0718 170.028 40.0718 170.05 40.0718C170.072 40.0075 170.16 39.9861 170.227 40.0075C170.271 40.0289 170.293 40.0504 170.337 40.0718C170.359 40.0718 170.403 40.0718 170.425 40.0718C171.021 40.0932 171.616 40.1146 172.212 40.136C172.52 40.136 172.807 40.1574 173.116 40.1574C173.226 40.1574 173.336 40.1788 173.38 40.0718C173.425 39.9647 173.447 39.8362 173.447 39.7292C173.535 39.1724 173.557 38.6371 173.557 38.0803C173.557 37.3523 173.535 36.6242 173.535 35.8962C173.535 35.7034 173.535 35.4893 173.535 35.2966C173.491 35.0396 173.469 34.7612 173.469 34.5043C173.469 34.333 173.447 34.1831 173.447 34.0118C173.447 33.969 173.469 33.8833 173.425 33.8405C173.38 33.8191 173.27 33.8191 173.226 33.7976C172.586 33.712 171.947 33.6906 171.285 33.712C170.999 33.7334 170.712 33.7548 170.425 33.7976C170.271 33.8191 170.116 33.8405 169.962 33.8619C169.874 33.8833 169.763 33.8833 169.697 33.9475C169.609 34.0118 169.631 34.1403 169.631 34.2259C169.631 34.3758 169.631 34.5257 169.653 34.6542Z" fill="white"/>
<path d="M166.301 33.1124C166.499 33.1767 166.698 33.1981 166.896 33.2409C167.315 33.3051 167.735 33.3051 168.154 33.3051C168.374 33.3051 168.573 33.3051 168.793 33.3051C168.97 33.3051 169.19 33.2837 169.345 33.3694C169.455 33.4336 169.499 33.5621 169.499 33.6692C169.609 33.6049 169.742 33.5621 169.874 33.5407C170.513 33.4122 171.175 33.3694 171.815 33.3694C172.146 33.3694 172.476 33.3908 172.829 33.4336C172.984 33.455 173.16 33.4765 173.314 33.4979C173.447 33.5193 173.579 33.5407 173.667 33.6263C173.778 33.7334 173.778 33.8833 173.778 34.0118C173.778 34.0974 173.778 34.1831 173.778 34.2902C173.976 34.1617 174.241 34.1403 174.461 34.1189C174.594 34.0974 174.748 34.0974 174.88 34.0974C174.373 33.6478 173.888 33.1553 173.469 32.6413C173.447 32.6627 173.425 32.6842 173.403 32.7056C173.337 32.7698 173.204 32.7912 173.138 32.7056C172.962 32.5129 172.763 32.3201 172.587 32.1274C172.41 31.9561 172.234 31.7848 172.079 31.5921C171.925 31.4208 171.815 31.2066 171.837 30.9711C171.837 30.8426 171.881 30.6713 171.969 30.5428C171.903 30.4786 171.859 30.4143 171.815 30.3501C171.682 30.1574 171.528 29.9432 171.44 29.7291C171.33 29.7934 171.175 29.8362 171.021 29.8362C170.602 29.8362 170.205 29.6006 169.83 29.4722C169.477 29.3437 169.124 29.2794 168.749 29.1724L168.573 29.3437C168.44 29.4722 168.33 29.6006 168.154 29.622C167.977 29.6435 167.779 29.6006 167.602 29.5578C167.426 29.515 167.249 29.4507 167.073 29.3865C167.007 29.3651 166.896 29.3223 166.83 29.2794C166.786 29.3008 166.742 29.3008 166.698 29.3223C166.522 29.3865 166.323 29.4293 166.147 29.4722C165.992 29.4936 165.86 29.4936 165.728 29.4507C165.728 29.4936 165.75 29.5578 165.75 29.6006C165.772 29.7719 165.794 29.9432 165.816 30.1146C165.86 30.4572 165.882 30.7784 165.904 31.121C165.926 31.4636 165.97 31.7848 165.992 32.1274C166.014 32.2987 166.014 32.47 166.036 32.6413C166.036 32.7484 166.08 32.8983 166.058 33.0054C166.125 33.0482 166.213 33.091 166.301 33.1124Z" fill="white"/>
<path d="M173.932 39.8362C174.02 40.1788 174.395 40.3287 174.704 40.4144C175.145 40.5214 175.63 40.5214 176.093 40.5429C176.645 40.5643 177.196 40.5857 177.747 40.5643C177.924 40.5643 178.122 40.5643 178.277 40.5C178.497 40.4144 178.519 40.2217 178.541 40.0289C178.585 39.4936 178.63 38.9583 178.674 38.4229C178.696 38.166 178.718 37.8876 178.74 37.6306C178.762 37.4379 178.762 37.2452 178.784 37.0525C178.122 36.6456 177.483 36.2174 176.865 35.7677C176.27 35.3394 175.696 34.8897 175.167 34.3972C174.902 34.4186 174.616 34.3972 174.351 34.44C174.219 34.4615 174.064 34.4829 173.954 34.5257C173.844 34.5685 173.822 34.6756 173.822 34.7827C173.8 35.3822 173.844 35.9818 173.844 36.5814C173.844 37.1381 173.866 37.6735 173.866 38.2302V39.0439C173.91 39.3009 173.866 39.5793 173.932 39.8362Z" fill="white"/>
<path d="M173.248 41.7206C174.175 42.1917 175.123 42.6414 176.137 42.9198C177.196 43.1981 178.321 43.3052 179.424 43.3694C180.526 43.4337 181.651 43.4551 182.754 43.4551C183.327 43.4551 183.879 43.4551 184.452 43.4337C185.004 43.4337 185.533 43.3908 186.084 43.3908C186.15 43.3908 186.195 43.4337 186.239 43.4765C186.459 43.4123 186.68 43.3694 186.9 43.3052C187.187 43.2195 187.452 43.1125 187.738 42.984C187.782 42.9626 187.827 42.9412 187.871 42.9198C188.224 42.3844 188.576 41.8491 188.819 41.2709C189.04 40.7142 189.194 40.136 189.26 39.5578C188.907 39.7292 188.554 39.8791 188.202 40.0075C187.937 40.0932 187.672 40.1788 187.408 40.2645C187.275 40.3073 187.121 40.3501 186.966 40.3716C186.9 40.393 186.834 40.393 186.79 40.4144C186.724 40.5 186.591 40.5429 186.459 40.5643C186.195 40.6071 185.908 40.6499 185.643 40.6713C184.651 40.7998 183.658 40.9497 182.666 41.0568C182.6 41.0568 182.511 41.0782 182.445 41.0782C182.445 41.1639 182.379 41.2281 182.313 41.2495C181.85 41.3994 181.32 41.4636 180.813 41.4422C180.593 41.4422 180.35 41.3994 180.129 41.3566C179.931 41.3137 179.688 41.2923 179.534 41.1424C179.38 40.9925 179.38 40.7998 179.38 40.6071C179.38 40.3716 179.38 40.136 179.357 39.9219C179.335 39.0225 179.247 38.1446 179.225 37.2452C179.203 37.2238 179.181 37.2238 179.159 37.2024C179.137 37.3951 179.115 37.5878 179.115 37.7805C179.093 38.1232 179.049 38.4658 179.027 38.8084C179.005 39.151 178.983 39.4722 178.938 39.8148C178.916 40.0932 178.916 40.393 178.718 40.6071C178.387 40.9497 177.814 40.8855 177.373 40.8855C176.755 40.8855 176.137 40.8641 175.52 40.8212C175.057 40.7998 174.594 40.757 174.175 40.5643C173.998 40.4786 173.844 40.3501 173.711 40.2003C173.689 40.1788 173.689 40.1574 173.667 40.136C173.623 40.2431 173.557 40.3501 173.447 40.4144C173.292 40.5 173.094 40.4786 172.939 40.4786C172.565 40.4572 172.19 40.4572 171.815 40.4358L170.844 40.4144C171.109 40.5857 171.374 40.7356 171.66 40.8855C172.212 41.1853 172.741 41.4636 173.248 41.7206Z" fill="white"/>
<path d="M182.511 40.2217C182.533 40.3501 182.533 40.5 182.555 40.6285C182.555 40.6499 182.577 40.6928 182.577 40.7356H182.644C182.908 40.6928 183.173 40.6499 183.438 40.6285C183.989 40.5643 184.518 40.4786 185.07 40.4144C185.334 40.3716 185.599 40.3501 185.864 40.3073C185.996 40.2859 186.15 40.2645 186.283 40.2431C186.327 40.2431 186.349 40.2431 186.393 40.2217C186.327 40.0504 186.349 39.8362 186.327 39.6863C186.305 39.3865 186.283 39.0653 186.261 38.7655C186.216 38.3373 186.172 37.909 186.15 37.4807C185.908 37.7591 185.665 38.0161 185.422 38.273C184.915 38.8084 184.232 39.3009 183.46 39.2366C183.085 39.2152 182.732 39.0867 182.379 38.9154C182.401 39.0867 182.423 39.2795 182.445 39.4508C182.445 39.7077 182.467 39.9647 182.511 40.2217Z" fill="white"/>
<path d="M181.056 38.2945C180.504 38.0161 179.975 37.7163 179.424 37.3951C179.622 38.3587 179.666 39.3651 179.71 40.3501C179.71 40.4786 179.71 40.6071 179.71 40.757C179.71 40.8855 179.732 40.9283 179.865 40.9711C180.107 41.0354 180.372 41.0782 180.637 41.0996C181.122 41.1424 181.607 41.0782 182.07 40.9497C182.07 40.9283 182.092 40.9069 182.092 40.8855C182.114 40.8427 182.136 40.8212 182.18 40.8212C182.158 40.5857 182.136 40.3501 182.114 40.1146C182.092 39.879 182.07 39.6435 182.048 39.408C182.026 39.2152 182.004 39.0011 182.026 38.787C181.717 38.6371 181.386 38.4658 181.056 38.2945Z" fill="white"/>
<path d="M174.483 26.7526C174.307 26.5813 174.13 26.4314 173.932 26.2815C173.733 26.1316 173.535 26.0032 173.314 25.8961C173.204 25.8319 173.094 25.789 172.983 25.7248C172.939 25.7034 172.895 25.682 172.829 25.6606C172.763 26.4314 172.609 27.2023 172.366 27.9518C172.234 28.3586 172.057 28.7655 171.881 29.1723C171.815 29.3008 171.748 29.4293 171.66 29.515C171.815 29.7077 171.947 29.9432 172.123 30.136C172.167 30.2002 172.212 30.243 172.256 30.3073C172.278 30.3287 172.278 30.3287 172.278 30.3287L172.3 30.3073C172.388 30.2002 172.476 30.0717 172.586 29.9432C173.27 29.0439 173.954 28.1445 174.616 27.2451C174.66 27.1809 174.726 27.1167 174.77 27.0524C174.792 27.0096 174.792 27.031 174.77 26.9882C174.66 26.9239 174.571 26.8383 174.483 26.7526Z" fill="white"/>
<path d="M172.19 24.8897C172.035 24.7826 171.859 24.697 171.704 24.6327C171.351 24.4828 170.954 24.3972 170.557 24.3115C169.741 24.1616 168.903 24.1402 168.065 24.2473C167.977 24.2687 167.911 24.2473 167.867 24.183C167.492 24.2259 167.095 24.2259 166.698 24.2259C166.213 24.2473 165.75 24.2687 165.264 24.2901C164.404 24.3329 163.566 24.4186 162.728 24.5471C162.309 24.6113 161.89 24.697 161.471 24.7826C161.25 24.8254 161.052 24.8897 160.831 24.9325C160.677 24.9753 160.5 25.0182 160.368 25.1252C160.258 25.2109 160.192 25.3394 160.192 25.4678C160.214 25.6177 160.368 25.6391 160.5 25.6391C160.942 25.6391 161.361 25.5963 161.802 25.5535C162.684 25.4893 163.566 25.3822 164.47 25.3179C164.514 25.3179 164.536 25.3179 164.559 25.3394C164.647 25.2965 164.735 25.2323 164.823 25.2323C164.867 25.2323 164.911 25.2751 164.889 25.3179C164.845 25.4464 164.713 25.5321 164.603 25.6177C164.492 25.7034 164.382 25.7676 164.294 25.8533C164.073 26.0246 163.853 26.1959 163.676 26.41C163.522 26.5813 163.368 26.7526 163.39 26.9882C163.412 27.2023 163.544 27.3094 163.72 27.395C163.765 27.3308 163.831 27.2666 163.897 27.2023C164.316 26.7741 164.823 26.4529 165.22 26.0246C165.308 25.9389 165.463 26.046 165.397 26.1531C165.22 26.41 165 26.6242 164.757 26.8383C164.536 27.0524 164.294 27.2452 164.095 27.4807C164.051 27.5449 164.007 27.5878 163.963 27.652C163.963 27.652 163.941 27.6734 163.941 27.6948C163.963 27.7162 163.985 27.7591 164.007 27.7805C164.073 27.8661 164.184 27.9518 164.294 27.9946C164.426 28.0374 164.559 28.0589 164.669 28.016C164.823 27.9732 164.933 27.909 165.088 27.8661C165.11 27.8661 165.154 27.8661 165.176 27.8876C165.353 27.7377 165.595 27.6306 165.794 27.5235C165.948 27.4379 166.102 27.652 165.97 27.7591C165.727 27.9518 165.485 28.1659 165.264 28.3801C165.22 28.4443 165.154 28.4871 165.11 28.5514C165.066 28.5942 165.088 28.5942 165.132 28.637C165.242 28.7227 165.353 28.8083 165.463 28.9154C165.551 29.001 165.661 29.0867 165.772 29.1081C165.904 29.1509 166.058 29.0867 166.191 29.0653C166.345 29.0225 166.499 28.9796 166.654 28.9154C166.72 28.894 166.808 28.8726 166.874 28.8512C166.963 28.8297 167.029 28.8297 167.117 28.8297C167.249 28.8297 167.293 29.0225 167.183 29.0867C167.161 29.0867 167.161 29.1081 167.161 29.1081C167.183 29.1081 167.205 29.1295 167.227 29.1295C167.426 29.1938 167.624 29.2366 167.823 29.258C167.889 29.258 167.999 29.3008 168.065 29.258C168.131 29.2366 168.198 29.1509 168.242 29.1081C168.308 29.0439 168.374 28.9796 168.44 28.9154C168.44 28.894 168.462 28.8726 168.484 28.8726C168.55 28.8083 168.617 28.7441 168.683 28.7013C168.749 28.6584 168.837 28.6156 168.925 28.6798C168.992 28.7227 168.992 28.8083 168.947 28.8726C169.256 28.9154 169.587 28.9796 169.874 29.0867C170.094 29.1509 170.293 29.2366 170.491 29.3222C170.668 29.3865 170.844 29.4507 171.043 29.4293C171.396 29.3865 171.55 28.9154 171.682 28.637C171.837 28.2944 171.969 27.9304 172.079 27.5663C172.19 27.1809 172.278 26.7955 172.344 26.41C172.41 26.046 172.476 25.6391 172.454 25.2751C172.476 25.0824 172.366 24.9967 172.19 24.8897Z" fill="white"/>
<path d="M160.699 26.7098C160.699 26.7312 160.964 26.7098 160.986 26.7098C161.096 26.6884 161.228 26.6884 161.339 26.667C161.581 26.6456 161.824 26.6027 162.044 26.5599C162.177 26.5385 162.287 26.4957 162.419 26.4743C162.441 26.4743 162.463 26.4529 162.507 26.4529H162.53V26.4314C162.53 26.41 162.53 26.3672 162.53 26.3458C162.53 26.2387 162.53 26.1102 162.53 25.9818C162.53 25.9389 162.53 25.9175 162.53 25.8961C162.088 25.9389 161.669 25.9603 161.228 25.9818C161.008 26.0032 160.765 26.0246 160.545 26.0246C160.523 26.0246 160.5 26.0246 160.5 26.0246C160.567 26.2173 160.611 26.4314 160.655 26.6456C160.699 26.6456 160.699 26.6884 160.699 26.7098Z" fill="white"/>
<path d="M165.352 35.2752C165.375 36.0675 165.419 36.8598 165.507 37.6306C165.529 37.8234 165.551 38.0375 165.573 38.2302C165.595 38.4015 165.639 38.5514 165.749 38.7013C165.948 38.9583 166.279 39.1082 166.566 39.2366C166.632 39.2581 166.676 39.2795 166.742 39.3009C166.786 39.3009 166.808 39.3223 166.852 39.3437C167.404 39.5364 168.021 39.6007 168.595 39.6863C168.661 39.6863 168.749 39.7077 168.859 39.7077C168.881 39.7077 168.903 39.7077 168.903 39.7077C169.08 39.7077 169.256 39.7077 169.344 39.5793C169.433 39.4508 169.389 39.2795 169.366 39.151C169.344 39.0011 169.366 38.8512 169.433 38.7227C169.455 38.7013 169.455 38.6799 169.477 38.6799C169.411 37.3951 169.366 36.1103 169.3 34.8469C169.3 34.7612 169.3 34.697 169.3 34.6114C169.256 34.6114 169.212 34.5899 169.212 34.5257C169.19 34.4186 169.168 34.3116 169.168 34.2045C169.168 34.0974 169.168 33.969 169.19 33.8619C169.19 33.8191 169.212 33.712 169.19 33.6692C169.168 33.6263 169.212 33.6478 169.146 33.6263C169.058 33.6049 168.947 33.6263 168.837 33.6263C168.396 33.6263 167.977 33.6263 167.536 33.6263C167.117 33.6049 166.676 33.5621 166.279 33.4336C166.08 33.3694 165.86 33.3051 165.705 33.1767C165.705 33.1767 165.683 33.1767 165.683 33.1552C165.551 33.1552 165.441 33.2409 165.397 33.3694C165.33 33.5407 165.352 33.7548 165.352 33.9475C165.33 34.3758 165.33 34.8255 165.352 35.2752Z" fill="white"/>
<path d="M169.322 41.7206C169.874 42.3202 170.491 42.8555 171.153 43.348C173.667 45.211 176.689 46.2817 179.732 47.0097C180.174 47.1168 180.615 47.2239 181.078 47.3095C181.122 47.3095 181.166 47.3095 181.21 47.3309C181.541 47.3952 181.894 47.4808 182.225 47.5451C183.063 47.7164 183.901 47.8663 184.761 47.8663C184.893 47.8663 185.004 47.8663 185.136 47.8663C185.202 47.8663 185.268 47.8663 185.312 47.8234C185.356 47.7806 185.379 47.6735 185.401 47.6093C185.423 47.5236 185.467 47.4166 185.489 47.3309C185.599 46.9455 185.687 46.56 185.753 46.1532C185.886 45.3823 185.908 44.59 185.952 43.8191C185.709 43.8619 185.467 43.862 185.246 43.8834C184.915 43.8834 184.607 43.8834 184.276 43.9048C183.636 43.9048 182.997 43.9262 182.379 43.9048C181.232 43.9048 180.085 43.8619 178.938 43.7549C177.836 43.6692 176.733 43.5407 175.674 43.1981C174.66 42.8769 173.711 42.3844 172.763 41.8919C172.278 41.635 171.815 41.3994 171.352 41.121C170.999 40.9069 170.646 40.6928 170.337 40.4358C170.205 40.4358 170.05 40.4358 169.918 40.4144C169.653 40.3502 169.565 40.1574 169.543 39.9433C169.3 40.136 168.992 40.136 168.683 40.0932C168.529 40.2645 168.529 40.5643 168.617 40.7784C168.749 41.121 169.058 41.4208 169.322 41.7206Z" fill="white"/>
<path d="M190.892 41.4422C190.87 40.5857 190.495 39.7934 190.385 38.9583C190.164 39.0868 189.966 39.2152 189.745 39.3437C189.701 39.3651 189.657 39.3865 189.613 39.408V39.4294C189.569 40.1146 189.415 40.7784 189.128 41.3994C188.951 41.8277 188.709 42.2345 188.422 42.5986C188.687 42.4058 188.951 42.2131 189.194 41.9776C189.304 41.8705 189.525 41.9347 189.525 42.106C189.481 42.62 189.613 43.1125 189.856 43.5407C189.878 43.5193 189.922 43.4979 189.944 43.4551C190.01 43.3694 190.076 43.2624 190.142 43.1553C190.275 42.984 190.385 42.7913 190.495 42.62C190.76 42.2774 190.914 41.8919 190.892 41.4422Z" fill="white"/>
<path d="M190.473 38.4229C190.561 38.3587 190.65 38.2945 190.65 38.1874C190.65 38.0589 190.583 37.9304 190.539 37.8234C190.495 37.6949 190.451 37.545 190.407 37.4165C190.231 36.8812 190.12 36.3244 189.988 35.7677C189.745 34.6542 189.481 33.5193 189.591 32.363C189.613 32.2345 189.613 32.1274 189.635 31.9989C189.326 32.8126 188.951 33.6049 188.488 34.3544C188.047 35.061 187.54 35.7463 187.01 36.4101C187.055 37.0311 187.055 37.6307 187.099 38.2516C187.121 38.5728 187.143 38.8726 187.187 39.1938C187.209 39.3437 187.231 39.4936 187.253 39.6649C187.275 39.7506 187.275 39.8148 187.297 39.9005V39.9219C188.29 39.6435 189.26 39.2152 190.12 38.6585C190.253 38.5728 190.363 38.4872 190.473 38.4229Z" fill="white"/>
<path d="M190.914 28.1873C190.958 26.303 190.914 24.4186 190.782 22.5556C190.341 22.7912 189.878 22.9839 189.415 23.1552C188.422 23.5192 187.385 23.7548 186.349 23.9689L186.591 25.6391C186.636 25.9175 186.68 26.1959 186.702 26.4529C186.746 26.7098 186.746 26.9668 186.834 27.2023C186.9 27.395 187.099 27.5021 187.253 27.5878C187.452 27.6948 187.65 27.8019 187.849 27.909C188.246 28.1231 188.665 28.3158 189.084 28.4871C189.415 28.6156 189.745 28.7227 190.076 28.7869C190.142 28.7655 190.231 28.7869 190.297 28.8297C190.319 28.8297 190.363 28.8297 190.385 28.8512C190.517 28.8726 190.76 28.9154 190.848 28.7869C190.892 28.7227 190.892 28.6156 190.892 28.53C190.914 28.4229 190.914 28.2944 190.914 28.1873Z" fill="white"/>
<path d="M187.783 17.3522C186.79 17.0952 185.82 17.6305 184.982 18.1016C184.563 18.3372 184.166 18.6155 183.769 18.8939C183.46 19.1295 183.173 19.3864 182.842 19.622C182.886 19.7076 182.886 19.8147 182.798 19.8789C182.688 19.986 182.489 19.9646 182.401 19.8575C182.335 19.7719 182.335 19.6648 182.313 19.5577C182.291 19.4507 182.247 19.3436 182.225 19.2151C182.181 19.0866 182.159 18.9796 182.114 18.8725C182.092 18.8297 182.07 18.7869 182.07 18.7226C182.048 18.7012 182.048 18.6584 182.026 18.637C182.026 18.637 182.026 18.637 182.026 18.6155C181.916 18.5941 181.784 18.5941 181.695 18.5941C181.563 18.5941 181.453 18.5727 181.32 18.5727C181.078 18.5727 180.835 18.5513 180.593 18.5513C180.394 18.5513 180.196 18.5513 179.997 18.5299C180.041 18.7654 180.085 18.9796 180.129 19.2151C180.416 20.4999 180.681 21.7633 180.968 23.0481C180.99 23.0695 181.012 23.1124 181.034 23.1338C181.078 23.3479 181.1 23.562 181.122 23.7762C181.144 23.9475 181.166 24.1402 181.078 24.2901C180.99 24.4614 180.791 24.5042 180.615 24.5471C180.416 24.5899 180.218 24.6327 179.997 24.6755C179.578 24.7612 179.137 24.8468 178.718 24.8897C178.497 24.9111 178.277 24.9539 178.078 24.9111C177.902 24.8683 177.77 24.7612 177.637 24.6327C177.13 24.1402 176.755 23.5406 176.358 22.9839C176.204 22.7483 175.983 22.5128 175.718 22.4271C175.388 22.2986 175.013 22.3415 174.66 22.3415C173.138 22.3629 171.638 22.5342 170.161 22.8554C169.433 23.0053 168.705 23.2194 167.999 23.4336C167.867 23.4764 167.69 23.5406 167.536 23.562C167.426 23.6049 167.293 23.6263 167.183 23.6691C166.985 23.7333 166.786 23.7762 166.588 23.8404C166.566 23.8404 166.544 23.8618 166.5 23.8618C166.566 23.8618 166.654 23.8618 166.72 23.8618C167.095 23.8618 167.514 23.819 167.889 23.8618C167.911 23.8404 167.933 23.8404 167.955 23.819C168.992 23.6691 170.028 23.7119 171.043 23.9689C171.462 24.076 171.859 24.2044 172.234 24.4186C172.41 24.5042 172.565 24.6327 172.697 24.7826C172.807 24.9111 172.829 25.0824 172.829 25.2323C172.962 25.2323 173.094 25.3179 173.226 25.3822C173.381 25.4464 173.513 25.5321 173.667 25.6177C173.932 25.789 174.197 25.9603 174.439 26.1745C174.638 26.3458 174.836 26.5171 174.991 26.7098C175.255 26.7526 175.542 26.8811 175.785 27.0096C176.071 27.1381 176.336 27.2666 176.601 27.4164C176.711 27.4807 176.821 27.5663 176.887 27.6734C176.954 27.8019 176.954 27.9732 176.932 28.1017C176.932 28.1445 176.909 28.2087 176.909 28.2516C177.373 28.4443 177.836 28.637 178.299 28.8083C178.784 28.9796 179.291 29.1295 179.799 29.258C179.953 29.3008 180.107 29.3222 180.262 29.3651C180.218 29.3437 180.196 29.3008 180.174 29.2152C180.152 28.8297 180.306 28.4443 180.394 28.0588C180.504 27.6948 180.593 27.3094 180.681 26.9239C180.857 26.1531 181.012 25.3822 181.166 24.6327C181.188 24.5471 181.343 24.5685 181.343 24.6541C181.32 25.1466 181.276 25.6391 181.21 26.1316C181.276 25.9817 181.32 25.8319 181.387 25.6605C181.475 25.4678 181.541 25.2751 181.629 25.0824C181.695 24.9325 181.784 24.6541 181.96 24.6113C182.004 24.5899 182.07 24.6113 182.092 24.6541C182.181 24.8254 182.026 25.0396 181.96 25.2109C181.872 25.4036 181.806 25.5749 181.717 25.7676C181.563 26.1531 181.409 26.5385 181.276 26.9239C181.012 27.6734 180.747 28.4229 180.526 29.1723C180.526 29.1723 180.526 29.1723 180.526 29.1938C180.526 29.2152 180.504 29.2366 180.504 29.258C180.504 29.258 180.504 29.258 180.504 29.2794C180.482 29.3222 180.46 29.3651 180.416 29.3651C180.46 29.3651 180.526 29.3865 180.571 29.3865C180.835 29.4293 181.1 29.4721 181.343 29.5578C181.409 29.5792 181.475 29.6006 181.541 29.6434C181.74 29.6006 181.96 29.622 182.159 29.6434C182.401 29.6649 182.644 29.7077 182.864 29.7933C182.975 29.8362 183.107 29.9004 183.217 29.9004C183.327 29.9218 183.416 29.8576 183.482 29.7933C183.68 29.622 183.857 29.4507 184.055 29.2794C184.452 28.9154 184.849 28.5514 185.246 28.1659L185.82 27.6306C185.93 27.5449 186.018 27.4379 186.128 27.3522C186.217 27.2666 186.305 27.1595 186.415 27.1167C186.371 26.8597 186.327 26.6027 186.305 26.3672C186.261 26.1102 186.239 25.8533 186.195 25.5963C186.128 25.061 186.04 24.5256 185.974 24.0117C185.974 23.9903 185.974 23.9903 185.974 23.9689C185.842 23.9903 185.709 24.0117 185.599 24.0331C185.334 24.076 185.18 23.9475 185.092 23.7119C184.915 23.2194 184.827 22.6627 184.849 22.1273C184.849 22.0203 185.026 21.9989 185.048 22.1059C185.092 22.3843 185.136 22.6627 185.202 22.941C185.246 23.0695 185.268 23.2194 185.312 23.3479C185.334 23.4121 185.357 23.4764 185.379 23.5406C185.401 23.5834 185.401 23.6477 185.445 23.6905C185.511 23.7548 185.665 23.6905 185.731 23.6691C185.842 23.6477 185.974 23.6263 186.084 23.5835C186.327 23.5406 186.547 23.4764 186.79 23.4336C187.253 23.3265 187.738 23.2194 188.202 23.0695C188.29 23.0481 188.378 23.0267 188.466 22.9839C188.466 22.9839 188.466 22.9625 188.488 22.9625C188.687 22.8126 188.929 22.7055 189.172 22.6198C189.393 22.5342 189.635 22.4271 189.856 22.3415C190.076 22.2558 190.297 22.1702 190.495 22.0631C190.606 22.0203 190.694 21.9774 190.804 21.9346C190.848 21.9132 190.914 21.8918 190.958 21.8704C190.958 21.8704 190.981 21.8704 191.003 21.849C190.914 21.4635 190.76 21.0995 190.606 20.7355C190.451 20.3714 190.253 20.0288 190.054 19.6862C189.9 19.4507 189.745 19.2365 189.591 19.0224C189.084 19.0438 188.599 19.1295 188.113 19.2794C187.209 19.5577 186.393 19.986 185.555 20.4143C184.849 20.7783 184.099 21.2066 183.658 21.8918C183.592 22.0203 183.416 21.9132 183.46 21.7847C183.658 21.3565 183.989 21.0138 184.364 20.7355C184.717 20.4785 185.092 20.2644 185.467 20.0717C185.908 19.8361 186.349 19.622 186.812 19.4078C187.584 19.0652 188.4 18.7869 189.26 18.7012C189.018 18.4442 188.797 18.1873 188.577 17.9303C188.532 17.9303 188.488 17.8875 188.466 17.8447C188.422 17.7804 188.4 17.7162 188.356 17.6519C188.246 17.4806 188.113 17.3307 187.981 17.1808C187.981 17.3093 187.893 17.3736 187.783 17.3522Z" fill="white"/>
<path d="M171.197 17.5235C171.153 17.5235 171.109 17.5021 171.065 17.4807C171.065 17.5021 171.065 17.5449 171.065 17.5663C171.109 17.5663 171.153 17.5449 171.197 17.5235Z" fill="white"/>
<path d="M171.043 16.2815C171.087 16.2387 171.131 16.2173 171.175 16.1744C170.315 16.2815 169.433 16.1958 168.573 16.0888C168.573 16.1744 168.573 16.2387 168.573 16.3243C168.573 16.4742 168.595 16.6241 168.617 16.7526C168.639 16.8811 168.661 17.0524 168.727 17.1809C168.771 17.2665 168.969 17.2665 169.058 17.2879C169.344 17.3308 169.653 17.3736 169.962 17.3736C170.271 17.395 170.58 17.3736 170.888 17.3736C170.822 17.3093 170.778 17.2237 170.734 17.1166C170.624 16.8168 170.8 16.4956 171.043 16.2815Z" fill="white"/>
<path d="M166.257 20.0717C166.345 20.4357 166.433 20.7997 166.521 21.1638C166.61 21.5278 166.72 21.8918 166.83 22.2344C166.896 22.4057 166.963 22.577 167.029 22.7698C167.073 22.8554 167.095 22.9411 167.139 23.0267C167.161 23.091 167.183 23.1552 167.227 23.198C167.536 23.091 167.845 22.9625 168.176 22.8554C168.506 22.7483 168.859 22.6627 169.19 22.577C170.425 22.2344 171.682 21.9561 172.939 21.7633C173.579 21.6563 174.197 21.592 174.836 21.5492C175.145 21.5278 175.454 21.5064 175.785 21.5064C175.939 21.5064 176.093 21.5064 176.248 21.5278C176.402 21.5492 176.49 21.6134 176.623 21.6777C176.733 21.7419 176.645 21.8918 176.534 21.8704C176.446 21.849 176.358 21.8704 176.27 21.849C176.182 21.849 176.093 21.8276 176.005 21.8276C175.851 21.8276 175.674 21.8276 175.52 21.849C175.189 21.8704 174.836 21.8918 174.505 21.9132C173.976 21.9561 173.469 22.0203 172.939 22.1059C173.689 22.0417 174.439 21.9989 175.189 22.0203C175.52 22.0203 175.829 22.0845 176.093 22.2558C176.336 22.4057 176.512 22.6199 176.667 22.834C177.042 23.3479 177.395 23.8833 177.836 24.3544C177.924 24.4614 178.034 24.5685 178.167 24.5899C178.144 24.5257 178.122 24.4828 178.078 24.4186C178.034 24.3115 177.968 24.2045 177.902 24.076C177.792 23.8618 177.659 23.6477 177.527 23.455C177.262 23.0267 176.976 22.6199 176.667 22.2344C176.601 22.1488 176.733 22.0845 176.799 22.1274C177.174 22.4914 177.505 22.8768 177.814 23.3051C177.968 23.5192 178.1 23.7334 178.233 23.9689C178.343 24.1616 178.475 24.3758 178.564 24.5899C178.608 24.5899 178.63 24.5685 178.674 24.5685C179.027 24.5257 179.38 24.4614 179.732 24.3972C179.909 24.3544 180.085 24.3329 180.262 24.2901C180.328 24.2687 180.416 24.2473 180.482 24.2473C180.526 24.2259 180.637 24.2259 180.681 24.183C180.725 24.1402 180.703 24.076 180.703 24.0332C180.703 23.9475 180.703 23.8618 180.681 23.7762C180.681 23.712 180.659 23.6691 180.659 23.6049V23.5835C180.306 22.0417 179.975 20.4999 179.644 18.9796C179.49 18.3158 179.38 17.6305 179.137 16.9881C178.961 16.4956 178.696 15.9603 178.122 15.8532C177.836 15.8104 177.527 15.8532 177.24 15.9175C176.909 15.9817 176.579 16.0674 176.248 16.153C175.586 16.3457 174.946 16.5599 174.285 16.7954C172.939 17.2665 171.616 17.759 170.271 18.2301C169.587 18.4657 168.903 18.7012 168.22 18.9582C167.668 19.1509 167.139 19.3436 166.566 19.5149C166.544 19.5363 166.521 19.5363 166.499 19.5578C166.455 19.5578 166.389 19.5792 166.345 19.5792C166.301 19.622 166.235 19.6434 166.191 19.6434C166.169 19.6434 166.169 19.6648 166.147 19.6862C166.102 19.7505 166.147 19.8147 166.147 19.879C166.213 19.9218 166.235 20.0074 166.257 20.0717Z" fill="#2AC8EB"/>
<path d="M182.622 19.4721C182.864 19.1937 183.151 18.9582 183.438 18.7226C184.055 18.2087 184.739 17.7804 185.467 17.4164C186.128 17.0952 186.944 16.7526 187.694 16.9453C187.606 16.8597 187.496 16.7954 187.385 16.7098C186.988 16.4528 186.525 16.3029 186.062 16.3029C185.555 16.3029 185.114 16.5171 184.695 16.7526C184.276 16.9881 183.879 17.2665 183.482 17.5663C183.305 17.7162 183.107 17.8661 182.952 18.0374C182.776 18.2087 182.622 18.4014 182.423 18.5513C182.401 18.5727 182.357 18.5941 182.313 18.5941C182.357 18.7012 182.401 18.8297 182.445 18.9368C182.533 19.1509 182.577 19.3008 182.622 19.4721Z" fill="white"/>
<path d="M180.989 17.6734C180.769 17.8875 180.526 18.1016 180.284 18.2944C180.504 18.2729 180.725 18.2729 180.945 18.2944C181.298 18.2944 181.651 18.3158 181.982 18.3372C182.07 18.3372 182.136 18.3586 182.18 18.38C182.357 18.1445 182.599 17.9303 182.82 17.7162C183.041 17.5235 183.261 17.3308 183.504 17.1594C183.923 16.8382 184.364 16.5599 184.827 16.3029C185.29 16.0674 185.797 15.9175 186.349 15.9603C186.856 16.0031 187.363 16.2173 187.76 16.517C187.826 16.5599 187.871 16.6027 187.937 16.6669C187.804 16.4314 187.65 16.1958 187.43 16.0245C187.187 15.8318 186.9 15.7033 186.613 15.6177C186.305 15.5106 185.974 15.4035 185.643 15.3393C185.29 15.2537 184.915 15.2322 184.562 15.3179C184.209 15.4035 183.901 15.532 183.592 15.7033C182.952 16.0459 182.357 16.4528 181.805 16.9239C181.541 17.1809 181.276 17.4378 180.989 17.6734Z" fill="white"/>
<path d="M180.107 16.8382C179.975 16.9667 179.843 17.1594 179.644 17.2023C179.754 17.5877 179.843 17.9731 179.931 18.38C179.931 18.38 179.931 18.38 179.953 18.38C179.953 18.3586 179.953 18.3372 179.975 18.3158C180.262 17.9517 180.614 17.6305 180.945 17.3307C181.254 17.031 181.563 16.7526 181.894 16.4742C182.18 16.2387 182.489 16.0031 182.82 15.8104C182.776 15.8104 182.71 15.8104 182.666 15.8104C182.467 15.8104 182.247 15.8104 182.048 15.8104C181.85 15.8104 181.673 15.789 181.497 15.7462C181.188 15.9603 180.879 16.1958 180.592 16.4528C180.416 16.5385 180.262 16.6883 180.107 16.8382Z" fill="white"/>
<path d="M180.063 14.4828C179.953 14.3543 179.931 14.2258 179.909 14.0545C179.865 13.6905 179.777 13.3479 179.666 13.0052C179.644 12.9196 179.6 12.8339 179.556 12.7269C179.534 12.684 179.534 12.6412 179.512 12.6198C179.512 12.6198 179.512 12.6198 179.512 12.5984C179.446 12.6626 179.402 12.7483 179.357 12.8125C179.357 12.8339 179.357 12.8553 179.335 12.8768C179.269 13.1123 179.093 13.305 178.894 13.4549C178.674 13.6476 178.431 13.8404 178.211 14.0117C177.725 14.3757 177.24 14.7183 176.733 15.0395C176.093 15.4464 175.432 15.8318 174.77 16.1744C174.814 16.153 174.858 16.1316 174.902 16.1316C175.586 15.8961 176.248 15.7033 176.953 15.532C177.549 15.4035 178.255 15.2751 178.784 15.6391C179.181 15.9175 179.402 16.3671 179.556 16.8168C179.644 16.6883 179.776 16.5813 179.865 16.4956C180.019 16.3457 180.196 16.1958 180.372 16.0459C180.659 15.8104 180.945 15.5748 181.254 15.3607C180.99 15.168 180.747 14.9539 180.482 14.7611C180.35 14.7183 180.173 14.6327 180.063 14.4828Z" fill="white"/>
<path d="M171.462 17.1594C171.881 17.0524 172.322 16.9239 172.741 16.7954C172.94 16.7312 173.138 16.6883 173.337 16.6027C173.337 16.5599 173.359 16.4956 173.425 16.4742C174.02 16.2172 174.616 15.9389 175.167 15.6177C176.182 15.0609 177.13 14.4399 178.034 13.7547C178.255 13.5834 178.475 13.4121 178.674 13.2408C178.85 13.0695 179.027 12.8982 179.005 12.6412C178.961 12.3628 178.828 12.1059 178.74 11.8275C178.674 11.6348 178.652 11.4635 178.652 11.2708C178.409 11.5491 178.078 11.7633 177.792 11.9988C177.306 12.3414 176.821 12.684 176.336 13.0052C176.005 13.2194 175.652 13.4335 175.299 13.6262C175.277 13.6476 175.255 13.6691 175.233 13.6691C175.167 13.7119 175.101 13.7547 175.035 13.7975C174.616 14.0759 174.285 14.3971 173.954 14.7825C173.645 15.1252 173.292 15.4464 172.873 15.6605C172.587 15.8104 172.3 15.9389 171.991 16.0245C171.859 16.1102 171.727 16.1958 171.594 16.2815C171.44 16.3886 171.285 16.517 171.175 16.6669C171.087 16.7954 171.043 16.9239 171.109 17.0738C171.153 17.2237 171.308 17.1808 171.462 17.1594Z" fill="white"/>
<path d="M174.726 11.1851C174.682 10.971 174.66 10.7354 174.638 10.5213C174.329 10.35 173.998 10.1787 173.689 9.98596C173.535 9.98596 173.38 10.0074 173.226 10.0074C173.557 10.6712 173.755 11.3992 173.91 12.1273C173.998 12.5127 174.064 12.9196 174.108 13.305C174.13 13.4978 174.152 13.6905 174.174 13.8832C174.174 13.926 174.174 13.9903 174.196 14.0545C174.439 13.8404 174.704 13.6477 174.968 13.4549C174.946 12.941 174.902 12.4485 174.836 11.9346C174.814 11.6776 174.77 11.4421 174.726 11.1851Z" fill="white"/>
<path d="M176.579 11.4207C176.314 11.3778 176.093 11.2922 175.851 11.1637C175.586 11.0352 175.343 10.9067 175.079 10.7568C175.013 10.714 174.946 10.6926 174.902 10.6498C175.035 11.0566 175.101 11.4849 175.145 11.8918C175.211 12.3414 175.255 12.7911 175.299 13.2408C175.674 13.0053 176.049 12.7697 176.424 12.5127C176.843 12.2344 177.24 11.956 177.637 11.6562C177.902 11.4635 178.211 11.2708 178.431 10.9924C178.343 11.0352 178.255 11.078 178.166 11.0995C177.659 11.3136 177.108 11.4849 176.579 11.4207Z" fill="white"/>
<path d="M164.801 9.15084C164.911 9.4078 165.286 9.42921 165.529 9.45063C167.007 9.55769 168.462 9.64335 169.94 9.66476C170.69 9.66476 171.44 9.66476 172.168 9.64335C172.542 9.64335 172.917 9.62193 173.292 9.60052C173.645 9.57911 174.042 9.51486 174.395 9.60052C174.549 9.64335 174.527 9.83607 174.395 9.87889C174.351 9.90031 174.285 9.90031 174.241 9.92172C174.616 10.093 174.969 10.2857 175.343 10.4571C175.432 10.4999 175.498 10.5427 175.586 10.5855C175.608 10.5855 175.63 10.6069 175.674 10.6069C175.785 10.6284 175.917 10.6498 176.049 10.6498C176.314 10.6498 176.556 10.5855 176.799 10.4999C177.064 10.4142 177.328 10.2857 177.593 10.1573C177.836 10.0502 178.1 9.92172 178.387 9.92172C178.453 9.92172 178.475 9.98596 178.431 10.0288C178.233 10.2643 177.902 10.3928 177.615 10.5213C177.328 10.6498 177.064 10.7783 176.755 10.8639C176.623 10.9067 176.468 10.9496 176.314 10.971C176.512 11.0352 176.711 11.078 176.931 11.078C177.417 11.0566 177.902 10.8639 178.343 10.6712C178.784 10.4785 179.181 10.2429 179.556 9.96455C179.931 9.68617 180.306 9.36497 180.46 8.9367C180.504 8.78681 180.548 8.65833 180.57 8.50844C180.262 8.87246 179.865 9.06518 179.446 9.27932C179.335 9.32214 179.247 9.19366 179.357 9.12942C179.688 8.89388 180.041 8.65833 180.328 8.35854C180.46 8.23006 180.548 8.05875 180.637 7.88745C180.637 7.86603 180.659 7.84462 180.659 7.80179C180.659 7.69473 180.659 7.58766 180.659 7.50201C180.615 6.49558 180.284 5.53198 179.799 4.65403C179.578 4.22576 179.313 3.8189 179.027 3.43346C178.74 3.02661 178.387 2.66258 178.1 2.25573C178.078 2.23431 178.078 2.23431 178.078 2.2129C177.946 2.10583 177.836 1.99877 177.703 1.8917C177.417 1.65615 177.108 1.42061 176.799 1.20647C176.182 0.778203 175.564 0.371349 174.836 0.178629C173.579 -0.142572 172.212 0.00732143 170.977 0.328522C169.741 0.62831 168.573 1.14223 167.558 1.91311C166.61 2.64117 165.838 3.56194 165.353 4.63261C165.11 5.16795 164.956 5.7247 164.889 6.30286C164.801 6.98809 164.845 7.6519 164.823 8.33713C164.823 8.4442 164.823 8.55126 164.823 8.67974C164.757 8.78681 164.735 8.97953 164.801 9.15084Z" fill="white"/>
<path d="M171.748 10.0288C170.183 10.0502 168.617 10.0288 167.073 9.92173C166.676 9.90032 166.301 9.87891 165.904 9.83608C165.86 9.83608 165.794 9.83608 165.75 9.81467C165.904 10.5213 166.08 11.228 166.367 11.9132C166.433 12.0631 166.477 12.213 166.566 12.3414C166.654 12.4913 166.742 12.5128 166.918 12.5128C167.249 12.5342 167.58 12.5342 167.933 12.5342C168.595 12.5128 169.278 12.4485 169.94 12.3414C170.602 12.213 171.263 12.0417 171.903 11.8275C172.432 11.6348 172.961 11.4207 173.358 11.0138C173.248 10.6712 173.138 10.3286 173.028 9.96456C172.565 10.0288 172.168 10.0288 171.748 10.0288Z" fill="white"/>
<path d="M167.139 13.8618C167.315 14.3115 167.514 14.7612 167.757 15.168C167.823 15.2965 167.889 15.4036 167.955 15.532C168.021 15.6391 168.087 15.6819 168.22 15.7033C168.506 15.7462 168.793 15.7676 169.08 15.8104C170.05 15.9175 171.065 15.9389 171.991 15.6605C172.41 15.532 172.785 15.3607 173.138 15.1038C173.403 14.8896 173.645 14.6327 173.866 14.3971C173.822 14.2472 173.844 14.0545 173.822 13.9046C173.8 13.7119 173.8 13.5192 173.778 13.3265C173.733 12.9624 173.667 12.577 173.601 12.213C173.557 11.956 173.491 11.699 173.403 11.4421C172.939 11.8703 172.322 12.1059 171.726 12.2986C170.337 12.7483 168.859 12.9838 167.404 12.9624C167.205 12.9624 167.029 12.9624 166.83 12.941C166.764 12.941 166.72 12.9196 166.654 12.9196C166.632 12.941 166.632 12.9624 166.61 12.9838C166.61 12.9838 166.61 13.0053 166.588 13.0053V13.0267C166.588 13.0481 166.588 13.0481 166.588 13.0695C166.588 13.0695 166.588 13.1123 166.588 13.0909V13.1123C166.588 13.1337 166.588 13.1337 166.61 13.1551C166.632 13.2194 166.654 13.2622 166.676 13.3265C166.676 13.3479 166.698 13.3479 166.698 13.3693V13.3907L166.72 13.4121C166.72 13.4121 166.72 13.4335 166.742 13.4335C166.742 13.4335 166.764 13.4549 166.764 13.4763L166.786 13.4978C166.808 13.4978 166.808 13.5192 166.83 13.5192C166.852 13.5192 166.852 13.5406 166.874 13.5406C166.896 13.5406 166.918 13.562 166.918 13.562H166.941H166.963C166.985 13.562 166.985 13.562 167.007 13.562C167.007 13.562 167.029 13.562 167.051 13.562H167.095C167.117 13.562 167.183 13.5406 167.183 13.5406C167.249 13.5406 167.315 13.562 167.338 13.6262C167.36 13.6905 167.315 13.7547 167.271 13.7976C167.271 13.819 167.205 13.8404 167.139 13.8618Z" fill="white"/>
<path d="M168.109 17.8018C168.242 18.0374 168.374 18.2729 168.506 18.5085C168.506 18.5299 168.506 18.5299 168.528 18.5513C169.212 18.2943 169.918 18.0374 170.602 17.7804C170.337 17.7804 170.072 17.7804 169.808 17.759C169.455 17.7376 169.102 17.6948 168.749 17.6091C168.595 17.5663 168.462 17.502 168.396 17.3307C168.352 17.1808 168.33 16.9881 168.308 16.8168C168.286 16.6883 168.264 16.5384 168.264 16.3885C168.198 16.4528 168.131 16.4956 168.065 16.5599C167.977 16.6455 167.889 16.7312 167.823 16.8168C167.734 16.9025 167.668 16.9667 167.734 17.0738C167.801 17.3307 167.977 17.5663 168.109 17.8018Z" fill="white"/>
<path d="M166.345 19.0438C166.367 19.1081 166.389 19.1937 166.411 19.2579C166.455 19.2579 166.477 19.2579 166.521 19.2579C166.543 19.2579 166.588 19.2579 166.588 19.2794C167.095 19.0438 167.624 18.8511 168.153 18.6584C167.999 18.4014 167.845 18.1016 167.712 17.8447C167.69 17.8018 167.668 17.759 167.646 17.7162C167.558 17.8018 167.404 17.8233 167.315 17.8661C167.161 17.9089 167.029 17.9731 166.874 18.016C166.72 18.0588 166.588 18.1016 166.433 18.1445C166.323 18.1873 166.213 18.2087 166.08 18.2301C166.124 18.38 166.169 18.5299 166.213 18.6798C166.257 18.7869 166.301 18.9153 166.345 19.0438Z" fill="white"/>
<path d="M158.802 17.7804C158.714 17.6519 158.648 17.4806 158.56 17.3522C158.494 17.2451 158.449 17.138 158.383 17.0524C158.361 17.0095 158.317 16.8597 158.251 16.8168C158.185 16.7954 158.008 16.9025 157.964 16.9025C157.854 16.9453 157.744 16.9881 157.655 17.031C157.457 17.1166 157.258 17.2023 157.06 17.2879C156.861 17.3736 156.663 17.4592 156.464 17.5449C156.266 17.6305 156.045 17.7162 155.825 17.8233C155.737 17.8661 155.759 17.9732 155.737 18.0588C155.715 18.1659 155.715 18.2729 155.693 18.4014C155.67 18.5299 155.67 18.637 155.648 18.7654C155.979 18.6584 156.31 18.5513 156.663 18.4442C157.369 18.2087 158.097 17.9946 158.802 17.7804Z" fill="#2AC8EB"/>
<path d="M160.258 18.6584C160.126 18.5299 159.993 18.4014 159.861 18.2943L159.662 18.1016C159.618 18.0588 159.552 17.9731 159.486 17.9517C159.398 17.9303 159.287 17.9731 159.221 17.9946C159.133 18.016 159.045 18.0374 158.979 18.0802C158.802 18.1444 158.604 18.1873 158.427 18.2515C157.104 18.6584 155.803 19.0866 154.502 19.5149C153.84 19.729 153.2 19.9432 152.539 20.1573C152.384 20.2001 152.208 20.243 152.053 20.3072C151.921 20.3714 151.899 20.4357 151.899 20.5856C151.877 20.8639 151.855 21.1423 151.811 21.4421C153.333 20.9496 154.854 20.4571 156.354 19.9646C157.655 19.5149 158.957 19.0866 160.258 18.6584Z" fill="#2AC8EB"/>
<path d="M141.732 26.5813C141.776 26.6456 141.798 26.7098 141.842 26.7526C141.886 26.8169 141.93 26.8597 141.952 26.9239C141.952 26.9454 141.952 26.9668 141.952 26.9882C142.195 26.9025 142.415 26.8383 142.658 26.7526C142.812 26.6884 142.989 26.6456 143.143 26.5813C143.121 26.5599 143.121 26.5599 143.099 26.5385C142.923 26.303 142.702 26.0888 142.459 25.8961C142.349 25.8104 142.217 25.7248 142.106 25.6391C141.996 25.5749 141.864 25.4892 141.732 25.5107C141.423 25.5535 141.533 26.0032 141.577 26.1745C141.621 26.3244 141.665 26.4529 141.732 26.5813Z" fill="white"/>
<path d="M136.505 30.6071C136.218 30.7355 135.909 30.8212 135.622 30.9068C135.137 31.0567 134.652 31.2066 134.167 31.3565C133.263 31.6563 132.358 31.9775 131.476 32.3844C131.542 32.5557 131.63 32.7484 131.719 32.8983C131.807 33.0696 132.116 32.8983 132.248 32.8555C132.755 32.7056 133.263 32.5343 133.77 32.3844C134.277 32.2131 134.784 32.0632 135.292 31.8704C135.534 31.7848 135.799 31.6991 136.041 31.6135C136.13 31.5921 136.284 31.5492 136.416 31.485C136.483 31.228 136.549 30.9497 136.615 30.6927C136.637 30.6499 136.637 30.6071 136.637 30.5642C136.615 30.5642 136.593 30.5856 136.571 30.5856C136.549 30.6071 136.527 30.6071 136.505 30.6071Z" fill="#2AC8EB"/>
<path d="M136.063 29.4507C135.887 29.5364 135.711 29.6006 135.534 29.6863C135.424 29.7291 135.336 29.7719 135.225 29.8148C135.203 29.8148 135.181 29.8362 135.159 29.8362C135.159 29.8576 135.159 29.9004 135.159 29.9218C135.159 30.1145 135.181 30.2859 135.159 30.4786C135.181 30.4786 135.269 30.4786 135.292 30.4786C135.38 30.4572 135.468 30.4572 135.556 30.4357C135.755 30.4143 135.953 30.3715 136.152 30.3287C136.24 30.3073 136.328 30.2859 136.416 30.2644C136.46 30.243 136.527 30.243 136.571 30.2216C136.593 30.2216 136.615 30.2002 136.659 30.2002H136.681C136.703 30.1788 136.725 30.1574 136.747 30.136C136.769 30.0717 136.791 30.0075 136.791 29.9432C136.791 29.8148 136.813 29.6863 136.813 29.5792C136.813 29.4293 136.835 29.2794 136.835 29.1295C136.769 29.1724 136.681 29.1938 136.615 29.2366C136.438 29.3008 136.262 29.3865 136.063 29.4507Z" fill="#2AC8EB"/>
<path d="M142.746 30.5856C142.768 30.5214 142.857 30.4786 142.923 30.4786C143.143 30.1359 143.386 29.7719 143.606 29.4293C143.827 29.0867 144.092 28.6156 144.533 28.5085C144.819 28.4443 145.172 28.5942 145.283 28.8511C145.327 28.8726 145.349 28.9368 145.371 28.9796C145.371 29.001 145.393 29.0439 145.393 29.0653C145.481 28.8511 145.613 28.6584 145.878 28.6798C146.143 28.6798 146.451 28.7655 146.628 28.9796C146.782 29.1723 146.782 29.4293 146.738 29.6648C146.738 29.7077 146.716 29.7505 146.694 29.7933C146.738 29.8147 146.782 29.8362 146.826 29.879C147.003 29.7933 147.201 29.7291 147.4 29.6648C147.642 29.5792 147.885 29.4935 148.106 29.4079C148.591 29.2366 149.076 29.0653 149.561 28.894C150.046 28.7227 150.554 28.5514 151.039 28.3586C151.502 28.1873 151.943 27.9946 152.406 27.8875C152.362 27.8019 152.34 27.7162 152.296 27.6306C152.23 27.4593 152.539 27.3308 152.605 27.5021C152.649 27.5878 152.693 27.6948 152.737 27.7805C153.156 27.6092 153.575 27.5021 154.016 27.3736C154.502 27.2451 154.987 27.0952 155.45 26.9453C156.42 26.6456 157.391 26.3672 158.339 26.046C158.538 25.9817 158.626 26.3029 158.427 26.3672C157.457 26.667 156.509 26.9882 155.538 27.2665C155.053 27.4164 154.568 27.5449 154.083 27.6734C153.663 27.8019 153.244 27.909 152.803 27.9732C152.892 28.1659 152.98 28.3586 153.068 28.5514C153.09 28.6156 153.112 28.6584 153.178 28.6584C153.266 28.6584 153.377 28.637 153.487 28.637C153.686 28.6156 153.906 28.5942 154.105 28.5728C155.56 28.4015 157.016 28.2516 158.471 28.0803C158.846 28.0374 159.199 27.9946 159.574 27.9518L160.17 27.8875C160.258 27.8875 160.346 27.8661 160.434 27.8661C160.456 27.8661 160.567 27.8233 160.567 27.8661C160.589 27.8233 160.523 27.6948 160.523 27.652C160.501 27.5663 160.478 27.4807 160.456 27.395C160.412 27.2237 160.368 27.0738 160.324 26.9025C160.236 26.5599 160.126 26.2387 160.059 25.8961C160.037 25.8961 160.037 25.8747 160.015 25.8533C159.751 25.6177 159.839 25.1894 160.059 24.9539C160.346 24.6755 160.809 24.5899 161.184 24.5042C161.647 24.3972 162.088 24.3115 162.552 24.2473C163.456 24.0974 164.382 24.0331 165.309 23.9903C165.331 23.9903 165.353 23.9903 165.375 23.9903C165.375 23.9903 165.397 23.9689 165.419 23.9689C165.595 23.9261 165.772 23.8618 165.948 23.7976C166.125 23.7333 166.301 23.6691 166.477 23.6263C166.632 23.5834 166.786 23.5406 166.941 23.4764C166.874 23.3907 166.83 23.2837 166.786 23.1766C166.72 23.0053 166.654 22.8554 166.588 22.6841C166.345 22.0203 166.169 21.3136 166.014 20.607C165.992 20.4785 165.97 20.35 165.926 20.2215C165.882 20.243 165.816 20.2858 165.772 20.3072C165.595 20.3929 165.397 20.4571 165.198 20.5213C164.779 20.6712 164.382 20.7783 163.963 20.9068C162.463 21.3779 160.964 21.849 159.486 22.2986C157.986 22.7697 156.464 23.2622 154.921 23.6263C154.832 23.6477 154.788 23.5192 154.877 23.4764C155.67 23.1552 156.487 22.8768 157.303 22.6198C158.736 22.1487 160.192 21.6777 161.625 21.228C162.331 20.9924 163.059 20.7783 163.765 20.5427C164.118 20.4357 164.47 20.3286 164.845 20.2001C165.022 20.1359 165.198 20.0931 165.375 20.0288C165.463 20.0074 165.683 19.9432 165.75 19.8575C165.772 19.7933 165.816 19.7719 165.86 19.7505C165.86 19.6862 165.86 19.6434 165.882 19.5791C165.904 19.4721 165.97 19.4078 166.058 19.365C166.036 19.3008 166.014 19.2151 166.014 19.1509C165.992 19.0438 165.948 18.9367 165.926 18.8083C165.86 18.5727 165.794 18.3586 165.728 18.123C165.683 18.016 165.661 17.8875 165.617 17.7804C165.595 17.7162 165.573 17.6734 165.573 17.6091C165.573 17.5877 165.573 17.5663 165.551 17.5449C165.551 17.5449 165.551 17.5449 165.551 17.5235C165.507 17.502 165.441 17.5235 165.397 17.5235C165.353 17.5235 165.286 17.5235 165.242 17.502C165.22 17.502 165.22 17.502 165.198 17.502C163.61 17.9517 162.044 18.4871 160.478 19.001C157.611 19.9432 154.722 20.8639 151.855 21.8061C150.421 22.2772 148.988 22.7269 147.554 23.198C147.201 23.3051 146.871 23.4336 146.518 23.5406C146.253 23.6263 145.878 23.7119 145.724 23.9689C145.658 24.0974 145.613 24.2473 145.591 24.3972C145.547 24.5685 145.503 24.7398 145.459 24.8897C145.371 25.2109 145.305 25.5321 145.194 25.8533C145.569 25.7248 145.922 25.5749 146.297 25.425C146.694 25.2751 147.091 25.0824 147.51 24.9967C147.665 24.9753 147.731 25.1466 147.62 25.2323C147.422 25.3608 147.201 25.4464 146.981 25.5321C146.782 25.6177 146.562 25.7034 146.363 25.789C145.944 25.9603 145.525 26.1102 145.106 26.2601C143.584 26.8383 142.018 27.3522 140.475 27.8447C139.703 28.0803 138.931 28.3158 138.159 28.5299C138.071 28.5514 137.982 28.5728 137.894 28.5942C137.74 29.1723 137.563 29.7719 137.409 30.3501C137.321 30.6499 137.233 30.9497 137.144 31.2494C137.078 31.4422 137.034 31.6777 136.946 31.8704C137.21 31.7634 137.497 31.7205 137.74 31.6563C138.093 31.5706 138.423 31.4636 138.776 31.3779C139.107 31.2709 139.46 31.1852 139.791 31.0781C140.122 30.9711 140.475 30.8212 140.827 30.8426C140.894 30.8426 140.938 30.9282 140.872 30.9497C140.607 31.1638 140.232 31.2494 139.901 31.3565C139.57 31.4636 139.217 31.5706 138.887 31.6563C138.534 31.7634 138.181 31.849 137.828 31.9347C137.585 31.9989 137.299 32.0846 137.034 32.106C137.1 32.213 137.188 32.3201 137.255 32.4272C138.159 32.0417 139.107 31.7205 140.033 31.4422C140.519 31.2923 141.026 31.1424 141.533 31.0139C141.754 30.9497 141.974 30.9068 142.195 30.8426C142.305 30.7998 142.415 30.7569 142.526 30.7141C142.548 30.7355 142.724 30.6713 142.746 30.5856Z" fill="#2AC8EB"/>
<path d="M143.739 33.5621C144.025 33.712 144.268 33.9475 144.555 34.1189C144.819 34.2902 145.128 34.4186 145.459 34.4186C146.01 34.4401 146.385 34.0546 146.716 33.6478C146.716 33.6049 146.738 33.5621 146.804 33.5621C146.892 33.4764 146.959 33.3694 147.047 33.2837C147.289 33.0268 147.554 32.7484 147.841 32.5128C147.973 32.3844 148.127 32.2773 148.282 32.1702C148.414 32.0632 148.502 31.9775 148.502 31.8062C148.524 31.4636 148.458 31.0781 148.37 30.7355C148.282 30.3929 148.172 30.0717 147.995 29.7719C147.819 29.8362 147.642 29.9004 147.488 29.9432C147.334 29.9861 147.179 30.0503 147.025 30.0717C147.113 30.1788 147.179 30.2859 147.267 30.4143C147.422 30.6927 147.444 30.9711 147.311 31.2709C147.179 31.5921 146.981 31.8919 146.826 32.1916C146.65 32.5128 146.451 32.8126 146.275 33.1124C146.209 33.2195 146.076 33.1338 146.12 33.0268C146.253 32.727 146.363 32.4272 146.517 32.1274C146.65 31.849 146.804 31.5707 146.937 31.2923C147.003 31.1638 147.069 31.0139 147.069 30.864C147.069 30.7355 146.981 30.6071 146.914 30.5C146.826 30.3929 146.76 30.2644 146.672 30.1574C146.65 30.1145 146.628 30.0931 146.584 30.0503C146.54 30.1574 146.495 30.2644 146.429 30.3715C146.319 30.6499 146.187 30.9068 146.054 31.1852C145.922 31.4422 145.768 31.6991 145.613 31.9561C145.459 32.1916 145.282 32.47 145.04 32.6199C144.907 32.7056 144.797 32.5557 144.841 32.4272C144.907 32.2987 145.018 32.1916 145.106 32.0632C145.194 31.9347 145.282 31.8276 145.371 31.6991C145.525 31.4636 145.657 31.2066 145.79 30.9283C145.9 30.6927 146.01 30.4572 146.12 30.2216C146.209 30.0075 146.319 29.7933 146.385 29.5578C146.429 29.3651 146.451 29.1295 146.253 29.0439C146.165 29.0011 146.01 28.9582 145.9 28.9582C145.79 28.9582 145.768 29.0867 145.746 29.1724C145.503 29.6863 145.216 30.1788 144.93 30.6713C144.775 30.9068 144.621 31.1638 144.466 31.3994C144.312 31.6349 144.113 31.8276 143.937 32.0418C143.871 32.106 143.761 32.0203 143.805 31.9347C143.915 31.7634 143.981 31.5921 144.091 31.4208C144.18 31.2709 144.268 31.121 144.378 30.9497C144.555 30.6499 144.753 30.3287 144.907 30.0289C145.018 29.8362 145.106 29.6435 145.216 29.4507C145.172 29.4293 145.15 29.3865 145.15 29.3437C145.15 29.3008 145.15 29.2366 145.15 29.1938C145.062 29.1938 144.974 29.1295 144.974 29.0225C144.974 28.894 144.863 28.8297 144.753 28.8083C144.577 28.7869 144.444 28.894 144.334 29.0225C144.202 29.1509 144.113 29.3223 144.025 29.4507C143.915 29.622 143.783 29.7933 143.672 29.9861C143.43 30.3501 143.187 30.7141 142.945 31.0782C142.724 31.4208 142.459 31.742 142.283 32.106C142.195 32.3201 142.173 32.5985 142.283 32.7912C142.371 32.8126 142.459 32.8555 142.526 32.9411C142.636 33.0482 142.702 33.1552 142.812 33.2409C142.945 33.348 143.099 33.3051 143.275 33.3266C143.408 33.4122 143.584 33.4764 143.739 33.5621Z" fill="white"/>
<path d="M148.458 32.4914C148.304 32.5985 148.15 32.7056 148.017 32.834C147.775 33.0482 147.532 33.2837 147.312 33.5407C147.51 33.5621 147.709 33.5835 147.907 33.6263C148.083 33.6692 148.26 33.712 148.436 33.7548C148.613 33.7976 148.767 33.8619 148.944 33.8405C149.208 33.8191 149.451 33.6263 149.649 33.455C149.826 33.2837 149.98 33.1124 150.135 32.9197C150.421 32.5128 150.62 32.0846 150.752 31.6135C150.884 31.1424 150.929 30.6713 150.884 30.1788C150.862 29.9432 150.818 29.6863 150.752 29.4507C150.708 29.258 150.62 29.0867 150.576 28.894C150.289 29.001 150.002 29.1081 149.693 29.2152C149.252 29.3651 148.811 29.5364 148.37 29.6863C148.547 30.0503 148.679 30.4357 148.767 30.8212C148.811 31.0353 148.833 31.2495 148.855 31.485C148.877 31.6991 148.877 31.9133 148.811 32.106C148.745 32.2773 148.591 32.3844 148.458 32.4914Z" fill="white"/>
<path d="M149.649 33.9261C149.804 33.9475 149.936 33.9904 150.068 34.0332C150.245 34.076 150.399 34.1189 150.554 34.0332C150.708 33.9475 150.84 33.8619 150.973 33.7548C151.039 33.712 151.105 33.6478 151.171 33.5835C151.237 33.5407 151.281 33.4764 151.348 33.4122C151.502 33.3051 151.701 33.4336 151.612 33.6049C151.568 33.6906 151.502 33.7334 151.436 33.7976C151.37 33.8405 151.326 33.9047 151.259 33.9475C151.171 34.0118 151.061 34.0974 150.973 34.1617C151.039 34.1403 151.105 34.1831 151.127 34.2473C151.149 34.2473 151.149 34.2473 151.171 34.2687C151.37 34.3116 151.59 34.3758 151.789 34.4186C152.208 34.5257 152.627 34.5899 153.046 34.6542C153.465 34.7184 153.906 34.7613 154.325 34.8041C154.744 34.8255 155.141 34.8255 155.56 34.697C155.582 34.697 155.582 34.697 155.604 34.697C155.67 34.0332 155.715 33.3908 155.715 32.727C155.715 31.3993 155.56 30.0931 155.362 28.7869C154.788 28.8512 154.215 28.9154 153.641 28.9582C153.465 28.9796 153.244 29.0225 153.068 28.9796C152.914 28.9368 152.847 28.8083 152.781 28.6584C152.715 28.4871 152.627 28.3158 152.561 28.1445C152.12 28.3586 151.634 28.5085 151.149 28.6799C151.061 28.7013 150.995 28.7441 150.907 28.7655C150.995 28.9154 151.039 29.0653 151.083 29.2152C151.105 29.2152 151.105 29.1938 151.127 29.1938C151.392 29.1295 151.59 28.9154 151.811 28.8083C151.943 28.7441 152.098 28.6798 152.23 28.637C152.296 28.6156 152.362 28.5942 152.428 28.5942C152.472 28.5942 152.517 28.5728 152.561 28.5728C152.583 28.5728 152.605 28.5728 152.627 28.5728L152.671 28.5942C152.715 28.6156 152.759 28.637 152.759 28.6799C152.803 28.7869 152.715 28.8726 152.605 28.894C152.539 28.9154 152.45 28.9154 152.384 28.9368C152.252 28.9796 152.098 29.0225 151.965 29.0867C151.833 29.1509 151.701 29.2152 151.546 29.3008C151.414 29.3651 151.259 29.4293 151.127 29.4079H151.105C151.105 29.4293 151.127 29.4507 151.127 29.4721C151.193 29.7505 151.237 30.0503 151.237 30.3501C151.259 31.3993 150.929 32.4486 150.267 33.2837C150.113 33.5193 149.892 33.7548 149.649 33.9261Z" fill="white"/>
<path d="M152.516 37.9304C152.803 38.0803 153.09 38.2302 153.377 38.4015C153.509 38.4872 153.663 38.5728 153.796 38.6585C153.862 38.7013 153.928 38.7441 153.972 38.787C154.016 38.8084 154.038 38.8298 154.082 38.8512C154.104 38.8726 154.126 38.8726 154.126 38.894C154.193 38.894 154.281 38.9369 154.303 39.0011C154.546 38.8298 154.788 38.6371 155.053 38.4872C156.641 37.5022 158.515 36.9454 160.39 36.9454C160.28 36.6884 160.125 36.4529 159.971 36.2388C159.971 36.2174 159.949 36.2174 159.949 36.1959C159.883 36.2174 159.839 36.2174 159.773 36.2174C159.089 36.3244 158.405 36.4101 157.721 36.4101C157.369 36.4101 157.038 36.4101 156.685 36.3887C156.508 36.3887 156.332 36.3672 156.178 36.3458C156.023 36.3244 155.869 36.3244 155.737 36.2602C155.494 36.1317 155.45 35.8747 155.472 35.6392C155.494 35.4465 155.516 35.2323 155.56 35.0396C155.163 35.1467 154.744 35.1467 154.347 35.1253C153.906 35.1039 153.465 35.0396 153.046 34.9754C152.605 34.9111 152.186 34.8255 151.745 34.7184C151.524 34.6542 151.303 34.6113 151.083 34.5257C151.017 34.5043 150.951 34.4829 150.884 34.4615C150.289 34.6542 149.715 34.8683 149.186 35.2109C149.142 35.2323 149.098 35.2538 149.076 35.2966C149.142 35.3394 149.208 35.3822 149.252 35.4251C149.385 35.5107 149.517 35.6178 149.627 35.7248C149.87 35.9176 150.135 36.1103 150.311 36.3672C150.377 36.4529 150.267 36.5386 150.179 36.4957C150.046 36.4101 149.914 36.3244 149.782 36.2174C149.671 36.1317 149.539 36.0246 149.429 35.9176C149.296 35.8105 149.186 35.7248 149.054 35.6178C148.988 35.5535 148.899 35.5107 148.833 35.4465C148.811 35.4465 148.811 35.4679 148.789 35.4679C148.723 35.5107 148.657 35.5535 148.613 35.5964C148.569 35.6392 148.547 35.682 148.591 35.7463C148.657 35.8747 148.789 36.0032 148.899 36.1103C149.01 36.2174 149.098 36.303 149.208 36.3887C149.715 36.8169 150.267 37.2238 150.796 37.6306C151.7 38.3373 152.649 39.1296 153.818 39.3437C153.884 39.2795 153.972 39.2152 154.038 39.151C153.972 39.1296 153.906 39.0653 153.862 39.0439C153.707 38.9369 153.553 38.8298 153.399 38.7227C153.068 38.5086 152.759 38.273 152.45 38.0589C152.318 38.0375 152.406 37.8662 152.516 37.9304Z" fill="white"/>
<path d="M151.436 56.4958C151.502 56.9241 151.59 57.3524 151.7 57.7807C151.767 58.0162 151.833 58.2517 151.877 58.4873C151.921 58.3374 151.965 58.2089 152.009 58.0804C152.208 57.6093 152.516 57.2025 152.847 56.817C153.134 56.4958 153.443 56.1961 153.84 56.0248C153.421 55.9177 153.024 55.7892 152.605 55.6607C152.384 55.5965 152.164 55.5322 151.943 55.468C151.833 55.4252 151.7 55.4038 151.59 55.3609C151.546 55.3395 151.436 55.3181 151.392 55.3395C151.325 55.3609 151.348 55.4466 151.348 55.5108C151.348 55.6179 151.348 55.725 151.348 55.832C151.392 56.0676 151.414 56.2817 151.436 56.4958Z" fill="white"/>
<path d="M154.832 67.1597C154.105 67.1811 153.421 67.2668 152.715 67.4381C152.009 67.6094 151.304 67.8021 150.576 67.8449C149.848 67.8663 149.098 67.8021 148.37 67.7593C147.62 67.7164 146.87 67.6522 146.143 67.588C145.415 67.5237 144.687 67.4167 143.981 67.2882C143.673 67.2239 143.32 67.1811 143.033 67.074C142.967 67.0526 142.923 67.0098 142.856 66.9884C142.834 67.1169 142.834 67.2239 142.923 67.331C143.099 67.5451 143.408 67.6308 143.673 67.7164C144.4 67.9306 145.15 68.0591 145.922 68.1447C146.606 68.2304 147.312 68.3374 147.995 68.4231C148.679 68.5087 149.385 68.6158 150.068 68.5944C150.73 68.573 151.37 68.3588 152.009 68.209C152.671 68.0591 153.333 67.9734 153.994 67.952C155.34 67.9092 156.685 68.0376 158.008 67.7164C158.251 67.6522 158.56 67.588 158.67 67.3524C158.736 67.2239 158.736 67.0526 158.758 66.9242C158.78 66.8171 158.78 66.7314 158.802 66.6244C158.317 67.0098 157.633 67.1383 156.994 67.1811C156.266 67.1811 155.538 67.1383 154.832 67.1597Z" fill="white"/>
<path d="M158.758 64.4616C158.758 64.3974 158.736 64.3117 158.736 64.2475C158.67 63.5837 158.538 62.9199 158.383 62.256C158.361 62.2132 158.383 62.1704 158.383 62.1276C158.251 61.1425 158.119 60.1361 157.986 59.1511C157.986 59.0869 157.964 59.0226 157.964 58.9584C157.898 58.9156 157.854 58.8513 157.876 58.7657C157.92 58.5301 157.126 58.6372 157.016 58.6372C156.619 58.6586 156.222 58.6586 155.847 58.68C155.053 58.7014 154.237 58.7228 153.443 58.7014C153.311 58.7014 153.311 58.5087 153.443 58.5087C154.369 58.4016 155.296 58.3588 156.222 58.2946C156.663 58.2732 157.126 58.2303 157.589 58.2303C157.677 58.2303 157.788 58.2517 157.876 58.2731C157.788 57.6522 157.677 57.0312 157.545 56.4102C157.523 56.3031 157.501 56.1961 157.479 56.1104C157.457 56.0462 157.413 56.0462 157.347 56.0462C157.104 56.0462 156.883 56.089 156.641 56.1104C156.156 56.1532 155.67 56.1961 155.185 56.2389C154.766 56.2817 154.281 56.2603 153.884 56.4744C153.531 56.6671 153.244 57.0098 153.002 57.2881C152.737 57.5879 152.495 57.9305 152.34 58.316C152.252 58.5515 152.208 58.7657 152.164 59.0012C152.164 59.1297 152.164 59.2582 152.164 59.3652C152.164 59.6436 152.142 59.922 152.142 60.2004C152.142 60.4359 152.164 60.7143 152.076 60.9498C151.987 61.1854 151.767 61.3567 151.59 61.528C150.929 62.1704 150.223 62.77 149.495 63.3267C149.12 63.6051 148.745 63.8835 148.37 64.1404C147.995 64.3974 147.598 64.6972 147.135 64.7614C146.65 64.8471 146.143 64.8471 145.658 64.8899C145.238 64.9113 144.819 64.9541 144.4 65.0398C144.003 65.1254 143.628 65.2967 143.342 65.5965C143.121 65.8321 142.967 66.1319 142.901 66.4531C142.901 66.4745 142.901 66.4959 142.901 66.5173C142.989 66.71 143.386 66.7529 143.562 66.7743C143.937 66.8385 144.312 66.9027 144.687 66.967C145.459 67.0741 146.231 67.1597 147.025 67.2239C147.709 67.2882 148.414 67.331 149.098 67.3738C149.782 67.4167 150.488 67.4809 151.193 67.3524C151.855 67.2454 152.495 67.0312 153.156 66.9027C153.818 66.7743 154.524 66.7314 155.207 66.7314C155.847 66.7314 156.509 66.7743 157.148 66.71C157.457 66.6886 157.766 66.6244 158.03 66.5173C158.273 66.4316 158.582 66.2818 158.692 66.0462C158.758 65.9391 158.78 65.8107 158.78 65.7036C158.78 65.5751 158.78 65.468 158.78 65.3396C158.802 65.0612 158.758 64.7614 158.758 64.4616Z" fill="white"/>
<path d="M162.75 50.7356C163.147 50.7356 163.544 50.65 163.919 50.4573C164.36 50.2217 164.735 49.8791 165.066 49.5151C165.661 48.8299 166.147 48.0376 166.566 47.2453C166.963 46.4316 167.271 45.575 167.448 44.6971C167.757 43.0268 167.536 41.2495 166.654 39.772C166.61 39.772 166.588 39.772 166.544 39.7506C166.036 39.515 165.529 39.2367 165.022 38.9797C164.14 38.53 163.257 38.0803 162.375 37.6306C161.956 37.4165 161.559 37.2238 161.162 36.9882C161.008 36.9026 160.875 36.8169 160.721 36.7099C160.787 36.8384 160.831 36.9454 160.875 37.0739C160.92 37.181 160.809 37.3094 160.699 37.3094C159.442 37.288 158.185 37.4808 156.994 37.9304C155.935 38.3159 154.943 38.894 154.105 39.6221C154.06 39.6649 153.994 39.7292 153.928 39.7506C153.862 39.772 153.774 39.7506 153.708 39.7292C153.575 39.7077 153.443 39.6649 153.311 39.6221C153.046 39.5364 152.781 39.4294 152.539 39.3009C152.031 39.0225 151.546 38.6799 151.105 38.3373C150.598 37.9304 150.069 37.545 149.561 37.1381C149.319 36.9454 149.076 36.7741 148.856 36.56C148.723 36.4529 148.591 36.3244 148.481 36.196C147.863 37.3309 147.929 38.6371 147.973 39.9005C147.973 40.2217 147.995 40.5643 147.973 40.8855C147.951 41.2281 147.907 41.5493 147.863 41.8705C147.841 42.0204 147.841 42.1489 147.907 42.2774C147.973 42.4058 148.039 42.5343 148.084 42.6628C148.194 42.9412 148.238 43.2624 148.304 43.5407C148.591 44.8255 148.944 46.1104 149.319 47.3737C150.069 49.9219 150.951 52.4273 151.811 54.9541C151.833 54.9969 151.833 55.0397 151.811 55.0826C151.899 55.104 151.987 55.1468 152.076 55.1682L152.781 55.3609C153.267 55.4894 153.774 55.6393 154.259 55.7678C154.347 55.7892 154.391 55.8534 154.391 55.9177C154.722 55.8749 155.053 55.8534 155.384 55.832C155.913 55.7892 156.464 55.7464 156.994 55.7035C157.082 55.7035 157.192 55.6821 157.281 55.6821C157.236 55.5322 157.214 55.3824 157.192 55.2325C157.17 55.0397 157.126 54.8256 157.104 54.6329C157.038 54.226 156.95 53.8406 156.928 53.4337C156.906 53.0697 156.972 52.7271 157.038 52.3845C157.104 52.0419 157.126 51.6992 157.148 51.3566C157.17 50.6714 157.126 49.9648 157.038 49.2795C156.884 47.9091 156.575 46.5386 156.442 45.1682C156.266 44.9754 156.134 44.7613 156.023 44.5472C155.869 44.2688 155.737 43.969 155.604 43.6692C155.318 43.0697 155.031 42.4487 154.877 41.8063C154.854 41.6992 155.009 41.635 155.053 41.742C155.362 42.2988 155.626 42.8983 155.913 43.4765C156.045 43.7335 156.178 44.0118 156.332 44.2688C156.31 44.226 156.31 44.1617 156.288 44.1189C156.222 43.7977 156.2 43.4551 156.2 43.1125C156.2 42.7485 156.266 42.4058 156.31 42.0418C156.332 41.9347 156.487 41.9347 156.487 42.0418C156.487 42.4058 156.487 42.7913 156.509 43.1553C156.531 43.4979 156.575 43.8619 156.663 44.2046C156.861 44.8898 157.391 45.3823 157.876 45.8748C158.405 46.4316 158.913 46.9669 159.442 47.5022C159.971 48.0376 160.501 48.5943 161.03 49.1296C161.295 49.408 161.559 49.665 161.846 49.9433C161.978 50.0718 162.111 50.2217 162.243 50.3502C162.331 50.4359 162.463 50.6286 162.618 50.6286C162.662 50.5858 162.728 50.65 162.75 50.7356Z" fill="white"/>
<path d="M168.374 47.5451C168.727 46.7742 168.992 45.939 169.168 45.1039C169.256 44.6971 169.323 44.2688 169.345 43.8405C169.389 43.3694 169.411 42.8769 169.278 42.4058C169.256 42.3202 169.278 42.2774 169.345 42.2345C169.058 41.9347 168.771 41.6135 168.529 41.2923C168.308 41.014 168.154 40.6499 168.242 40.2859C168.264 40.2003 168.308 40.1146 168.352 40.029C167.933 39.9861 167.514 39.9219 167.117 39.8148C167.536 40.6071 167.801 41.4636 167.889 42.3416C168.11 44.2474 167.558 46.1318 166.654 47.802C166.411 48.2303 166.169 48.6371 165.882 49.0226C165.617 49.408 165.309 49.7935 164.978 50.1147C164.404 50.65 163.522 51.1425 162.706 50.9712C162.838 51.0568 163.015 51.1211 163.103 51.1639C163.368 51.2924 163.632 51.4209 163.897 51.5494C164.029 51.6136 164.162 51.6778 164.316 51.7635C164.426 51.8277 164.559 51.8706 164.691 51.892C164.934 51.9134 165.176 51.7207 165.353 51.5708C166.61 50.5001 167.668 49.0868 168.374 47.5451Z" fill="white"/>
<path d="M170.844 52.7699C171.197 52.4487 171.55 52.1275 171.925 51.8277C173.248 50.7571 174.682 49.8363 176.226 49.0868C177.483 48.4658 178.828 47.9519 180.195 47.5665C179.798 47.4808 179.401 47.3737 179.004 47.2881C177.306 46.8598 175.63 46.3031 174.042 45.5536C172.609 44.8684 171.263 44.0332 170.094 43.0054C169.962 42.8769 169.808 42.7484 169.675 42.62C169.763 43.0911 169.741 43.605 169.675 44.0975C169.631 44.6114 169.543 45.1467 169.411 45.6607C168.969 47.4808 168.087 49.1939 166.852 50.6072C166.543 50.9498 166.213 51.2924 165.86 51.6136C165.683 51.7849 165.485 51.9776 165.242 52.1061C165.573 52.2132 165.882 52.3202 166.213 52.4273C166.654 52.5772 167.117 52.7057 167.58 52.8127C168.506 53.0269 169.433 53.1768 170.381 53.2624C170.535 53.0483 170.712 52.8984 170.844 52.7699Z" fill="white"/>
<path d="M173.998 50.7571C173.292 51.2067 172.631 51.6992 171.969 52.2346C171.66 52.4915 171.329 52.7699 171.021 53.0483C170.844 53.1982 170.69 53.3481 170.535 53.5194C170.513 53.5408 170.513 53.5622 170.491 53.5836C170.381 53.7121 170.271 53.8406 170.16 53.9905C170.138 54.0119 170.138 54.0119 170.116 54.0333C170.094 54.2903 170.205 54.6115 170.293 54.847C170.447 55.2539 170.646 55.6179 170.866 56.0033C170.954 55.9177 171.043 55.8534 171.131 55.7678V55.7464C171.153 55.7035 171.197 55.6607 171.241 55.6821C172.057 54.9755 172.873 54.2688 173.733 53.5836C175.476 52.2132 177.395 50.9926 179.556 50.3288C181.607 49.7078 183.879 49.665 185.886 50.4787C185.731 49.7292 185.467 48.9797 185.092 48.3159H185.07C184.827 48.3373 184.607 48.3159 184.364 48.3159C183.438 48.2731 182.533 48.0804 181.629 47.9091C181.409 47.8662 181.21 47.8234 180.989 47.7806C180.129 47.9947 179.269 48.2517 178.453 48.5729C176.887 49.0868 175.388 49.8577 173.998 50.7571Z" fill="white"/>
<path d="M177.637 64.8471C177.549 64.376 177.394 63.862 177.042 63.5194C176.689 63.1768 176.181 62.9627 175.718 62.7914C175.233 62.6201 174.704 62.513 174.196 62.4702C173.182 62.3845 172.123 62.5344 171.197 62.9627C170.976 63.0698 170.8 63.1982 170.734 63.4338C170.668 63.6907 170.624 63.9691 170.579 64.2475C170.513 64.5259 170.447 64.8257 170.359 65.104C170.315 65.2539 170.271 65.3824 170.227 65.5323C170.227 65.5537 170.205 65.5537 170.205 65.5751C170.182 65.7678 170.138 65.9391 170.116 66.1105C170.072 66.346 170.006 66.603 169.962 66.8385C169.918 67.0741 169.852 67.331 169.785 67.5666C169.741 67.7165 169.697 67.8878 169.675 68.0377C169.697 68.0591 169.719 68.0805 169.741 68.1019C169.763 68.1233 169.83 68.1876 169.874 68.209C169.918 68.2518 169.984 68.2946 170.028 68.3374C170.138 68.4231 170.249 68.5088 170.359 68.573C170.579 68.7229 170.822 68.8728 171.043 69.0227C171.285 69.1726 171.55 69.301 171.792 69.4081C171.925 69.4724 172.035 69.5152 172.167 69.5794C172.278 69.6437 172.41 69.6865 172.498 69.7721C172.564 69.8364 172.52 69.922 172.432 69.922C172.278 69.9435 172.123 69.8792 171.991 69.815C171.837 69.7721 171.704 69.7079 171.572 69.6437C171.307 69.5152 171.043 69.3867 170.778 69.2154C170.513 69.0655 170.271 68.8942 170.028 68.7015C169.918 68.6158 169.785 68.5088 169.675 68.4017C169.653 68.3803 169.631 68.3803 169.631 68.3589C169.675 68.6801 170.05 68.9156 170.293 69.0869C170.602 69.3225 170.932 69.5366 171.263 69.7293C171.947 70.1148 172.653 70.436 173.403 70.6501C174.196 70.8856 175.013 71.0355 175.851 70.9927C176.248 70.9713 176.645 70.8856 176.997 70.7357C177.174 70.6715 177.328 70.5858 177.483 70.4788C177.637 70.3931 177.747 70.2646 177.902 70.179C177.902 70.0933 177.924 70.0291 177.924 69.9434C177.858 70.0077 177.769 70.0505 177.681 70.0933C177.549 70.1576 177.417 70.2218 177.284 70.2646C177.02 70.3717 176.755 70.436 176.49 70.5002C176.203 70.5644 175.917 70.5858 175.63 70.5858C175.343 70.5858 175.057 70.5858 174.792 70.5002C174.66 70.4574 174.682 70.2861 174.814 70.2861C175.079 70.2646 175.365 70.2861 175.63 70.2646C175.895 70.2432 176.159 70.2004 176.402 70.1576C176.667 70.0933 176.931 70.0291 177.174 69.922C177.306 69.8792 177.417 69.815 177.527 69.7721C177.637 69.7079 177.747 69.6437 177.88 69.6865C177.902 69.6865 177.902 69.7079 177.924 69.7079C177.99 68.6372 177.99 67.5452 177.88 66.4745C177.814 65.9606 177.747 65.4038 177.637 64.8471Z" fill="white"/>
<path d="M183.482 64.5473C183.702 63.9691 183.901 63.3909 183.989 62.7914C183.967 62.77 183.945 62.7485 183.945 62.7057C183.835 62.4273 183.746 62.1704 183.592 61.9134C183.482 61.7207 183.371 61.528 183.261 61.3567C182.974 61.8492 182.688 62.3631 182.423 62.8556C181.85 63.862 181.276 64.8471 180.637 65.8107C180.548 65.9391 180.328 65.8321 180.416 65.6822C180.725 65.1254 181.034 64.5687 181.342 64.0119C181.894 63.0269 182.467 62.0419 182.996 61.0569C183.261 60.5858 183.504 60.1147 183.724 59.6436C183.835 59.4081 183.945 59.1725 184.011 58.9155C184.099 58.68 184.121 58.4016 184.276 58.1875C184.165 57.5451 184.033 56.8813 183.812 56.2817C183.371 55.0611 182.423 54.0761 181.453 53.1982C180.504 52.3416 179.424 51.6778 178.211 51.2496C178.188 51.2496 178.166 51.2281 178.166 51.2067C177.527 51.4851 176.909 51.8277 176.314 52.1703C174.505 53.2624 172.917 54.6329 171.351 56.0033C171.329 56.453 171.263 56.8813 171.219 57.331C171.109 58.2946 171.021 59.2367 170.954 60.2003C170.91 60.6714 170.888 61.1425 170.866 61.6136C170.844 61.9991 170.844 62.4059 170.8 62.8128C170.976 62.6843 171.197 62.5986 171.396 62.513C172.41 62.1061 173.535 61.9991 174.616 62.149C175.167 62.2132 175.696 62.3631 176.181 62.5772C176.689 62.7914 177.196 63.0483 177.527 63.4766C177.858 63.8835 177.968 64.4188 178.056 64.9113C178.166 65.5109 178.233 66.1319 178.277 66.7528C178.365 67.9734 178.365 69.2154 178.233 70.4574C178.233 70.4788 178.233 70.4788 178.233 70.4788C178.277 70.4788 178.321 70.4574 178.343 70.4574C178.519 70.4145 178.696 70.3503 178.872 70.2861C179.225 70.1576 179.556 69.9863 179.887 69.7721C181.1 69.0013 181.96 67.8235 182.599 66.5815C182.908 65.9391 183.195 65.2539 183.482 64.5473Z" fill="white"/>
<path d="M187.253 66.4745C187.407 66.3032 187.562 66.1105 187.65 65.8749C187.738 65.6394 187.76 65.4038 187.76 65.1683C187.76 64.6543 187.694 64.1618 187.584 63.6693C187.341 62.6629 186.966 61.7207 186.658 60.7357C186.371 59.8149 186.15 58.8727 185.974 57.9305C185.886 58.0162 185.775 58.1018 185.687 58.1661C185.356 58.4016 184.981 58.5729 184.606 58.6586C184.584 58.6586 184.54 58.6586 184.496 58.6586C184.452 58.8085 184.408 58.937 184.364 59.0654C184.254 59.3438 184.143 59.6222 184.011 59.9006C183.813 60.3288 183.592 60.7357 183.371 61.164C183.57 61.3567 183.724 61.5494 183.879 61.785C183.945 61.9134 184.033 62.0419 184.099 62.1704C184.165 62.1276 184.276 62.1276 184.298 62.2346C184.342 62.4702 184.364 62.6843 184.32 62.9199C184.298 63.134 184.254 63.3695 184.187 63.5837C184.364 63.4766 184.54 63.391 184.739 63.3481C184.871 63.3053 185.026 63.2839 185.158 63.3053C185.29 63.3267 185.445 63.3695 185.533 63.4552C185.555 63.498 185.533 63.5623 185.489 63.5837C185.423 63.5837 185.356 63.5837 185.312 63.5623C185.246 63.5623 185.202 63.5623 185.136 63.5623C185.026 63.5623 184.893 63.5837 184.783 63.6051C184.54 63.6693 184.32 63.755 184.121 63.862C184.099 63.9263 184.077 63.9905 184.055 64.0548C184.187 63.9905 184.32 63.9263 184.474 63.8835C184.695 63.8192 184.937 63.7978 185.18 63.7764C185.29 63.7764 185.4 63.7764 185.511 63.7764C185.621 63.7764 185.753 63.7764 185.82 63.8835C185.842 63.9049 185.82 63.9477 185.797 63.9905C185.731 64.0548 185.643 64.0548 185.555 64.0762C185.467 64.0762 185.378 64.0976 185.29 64.0976C185.114 64.0976 184.959 64.119 184.805 64.1404C184.629 64.1618 184.474 64.2047 184.32 64.2689C184.254 64.2903 184.165 64.3331 184.099 64.376C184.055 64.3974 184.033 64.4188 184.011 64.4402C184.011 64.4402 183.967 64.483 183.945 64.483C183.945 64.5044 183.945 64.5259 183.923 64.5473C183.879 64.6758 183.813 64.8042 183.768 64.9327C183.283 66.1533 182.732 67.3953 181.916 68.4445C182.357 68.7015 182.864 68.8085 183.371 68.7229C183.923 68.6372 184.452 68.4017 184.937 68.1447C185.731 67.6522 186.591 67.1811 187.253 66.4745Z" fill="white"/>
<path d="M187.804 61.785C187.628 61.3139 187.474 60.8213 187.341 60.3288C187.077 59.4509 186.878 58.5515 186.724 57.6308C186.68 57.5665 186.636 57.4809 186.591 57.3952C186.525 57.2453 186.503 57.0954 186.481 56.9455C186.481 56.9455 186.481 56.9669 186.459 56.9669C186.437 57.0098 186.415 57.0526 186.393 57.074C186.371 57.0954 186.349 57.1382 186.327 57.1597C186.327 57.1811 186.327 57.2025 186.327 57.2239C186.327 57.331 186.305 57.4166 186.261 57.5023C186.261 57.5237 186.261 57.5237 186.261 57.5451C186.459 58.7871 186.768 60.0076 187.165 61.2068C187.496 62.2346 187.893 63.2411 188.025 64.3331C188.091 64.8257 188.113 65.3824 187.981 65.8749C187.849 66.3674 187.474 66.7529 187.099 67.0741C186.724 67.4167 186.283 67.695 185.842 67.952C185.4 68.209 184.937 68.4659 184.452 68.6586C184.408 68.6801 184.386 68.6801 184.342 68.7015C184.584 68.6372 184.827 68.5302 185.048 68.4445C185.533 68.2518 185.996 68.0162 186.437 67.7379C187.187 67.2668 187.849 66.6458 188.223 65.8321C188.643 64.9541 188.532 64.0548 188.246 63.1554C188.157 62.7057 187.981 62.256 187.804 61.785Z" fill="white"/>
<path d="M190.319 49.8577C188.973 50.0718 187.584 50.1147 186.217 50.0504C186.195 50.0504 186.172 50.0504 186.15 50.0504C186.305 50.6928 186.415 51.378 186.481 52.0204C186.636 53.4766 186.746 54.9327 186.79 56.3888C186.79 56.6457 186.79 56.9027 186.856 57.1382C186.922 57.1382 186.988 57.1811 187.011 57.2667C187.033 57.331 187.033 57.4166 187.055 57.4809C187.165 57.5879 187.319 57.6522 187.496 57.695C187.76 57.7378 188.025 57.695 188.268 57.6308C188.621 57.5451 188.951 57.438 189.282 57.331C189.613 57.2239 189.966 57.1168 190.297 56.9884C190.451 56.9241 190.495 56.817 190.517 56.6457C190.539 56.4744 190.561 56.3031 190.561 56.1318C190.628 55.4252 190.672 54.6971 190.672 53.9905C190.694 52.62 190.628 51.2282 190.429 49.8791C190.407 49.8791 190.363 49.8791 190.319 49.8577Z" fill="white"/>
<path d="M190.826 49.772C190.914 50.5857 191.002 51.378 191.046 52.1703C191.046 52.3416 191.069 52.4915 191.069 52.6628C191.091 52.6414 191.091 52.62 191.091 52.62C191.179 52.4701 191.245 52.3202 191.333 52.1703C191.488 51.8705 191.598 51.5493 191.686 51.2281C191.774 50.9069 191.84 50.5643 191.863 50.2217C191.885 50.0718 191.885 49.9005 191.885 49.7506C191.885 49.6007 191.863 49.4722 191.885 49.3438C191.554 49.4722 191.201 49.6221 190.826 49.772Z" fill="white"/>
<path d="M192.723 45.7249C192.723 45.7463 192.723 45.7463 192.723 45.7249C191.333 46.4958 190.319 47.802 188.841 48.423C188.709 48.4872 188.576 48.2945 188.709 48.2089C190.032 47.5022 191.024 46.3459 192.282 45.5536C192.149 45.468 191.995 45.4037 191.84 45.3395C191.73 45.2966 191.598 45.211 191.488 45.211C191.377 45.1896 191.289 45.2966 191.201 45.3609C189.922 46.453 188.51 47.3737 186.988 48.1232C187.121 48.1446 187.253 48.1446 187.385 48.166C187.496 48.1875 187.584 48.1875 187.694 48.2089C187.738 48.2089 187.804 48.2303 187.849 48.2303C187.915 48.2517 187.959 48.2731 187.981 48.3373C188.025 48.3802 187.981 48.4444 187.937 48.4658C187.849 48.5301 187.716 48.5087 187.606 48.4872C187.518 48.4658 187.407 48.4444 187.319 48.4444C187.143 48.4016 186.944 48.3588 186.768 48.3373C186.79 48.5301 186.812 48.7014 186.834 48.8941C186.878 49.1511 186.922 49.3866 186.922 49.6436C186.922 49.665 186.922 49.665 186.922 49.6864C188.069 49.7078 189.194 49.6221 190.319 49.4937C190.341 49.4723 190.385 49.4723 190.429 49.4723C190.473 49.4723 190.517 49.4508 190.583 49.4508H190.605C190.65 49.4294 190.716 49.408 190.76 49.3866L191.113 49.2581C191.333 49.1725 191.576 49.0654 191.796 48.9797C192.039 48.8727 192.282 48.787 192.524 48.68C192.634 48.6371 192.745 48.6157 192.833 48.5515C192.899 48.4872 192.921 48.423 192.943 48.3373C193.076 47.4594 192.965 46.56 192.723 45.7249Z" fill="white"/>
</svg>
